<?xml version="1.0" encoding="utf-8"?>
<!-- Generator: Adobe Illustrator 24.1.2, SVG Export Plug-In . SVG Version: 6.00 Build 0)  -->
<svg version="1.1" id="Layer_1" xmlns="http://www.w3.org/2000/svg" xmlns:xlink="http://www.w3.org/1999/xlink" x="0px" y="0px"
	 viewBox="0 0 531.3 531.73" style="enable-background:new 0 0 531.3 531.73;" xml:space="preserve">
<style type="text/css">
	.st0{fill:#0092B0;}
</style>
<g>
	<path class="st0" d="M314.15,18.43c-0.5,0.16-1.57,0.29-2.86,0.06c-2.9-0.52-4.44-2.83-3.91-5.77c0.53-2.96,2.94-4.75,6.08-4.19
		c1.03,0.18,1.9,0.61,2.34,0.93l-0.64,1.28c-0.38-0.31-0.99-0.65-1.95-0.82c-2.21-0.39-3.69,1.02-4.05,3.03
		c-0.4,2.23,0.79,3.85,2.7,4.2c0.99,0.18,1.7,0.04,2.23-0.09L314.15,18.43z"/>
	<path class="st0" d="M318.94,5.16l1.74,0.36l-2.9,14.04l-1.74-0.36L318.94,5.16z"/>
	<path class="st0" d="M320.65,20.19l2.16-9.53l1.73,0.39l-2.16,9.53L320.65,20.19z M325.34,8.41c-0.11,0.6-0.65,0.97-1.34,0.81
		c-0.61-0.14-0.94-0.71-0.8-1.3c0.14-0.61,0.7-0.98,1.33-0.84C325.17,7.23,325.48,7.8,325.34,8.41z"/>
	<path class="st0" d="M332.02,22.59c-0.51,0.12-1.59,0.18-2.86-0.15c-2.86-0.73-4.22-3.14-3.49-6.04c0.74-2.92,3.28-4.52,6.37-3.73
		c1.02,0.26,1.85,0.74,2.26,1.1L333.57,15c-0.35-0.34-0.94-0.72-1.88-0.96c-2.17-0.55-3.76,0.75-4.26,2.73
		c-0.56,2.19,0.51,3.9,2.39,4.38c0.98,0.25,1.69,0.16,2.23,0.07L332.02,22.59z"/>
	<path class="st0" d="M336.98,18.89l0.04,0.01c0.33-0.26,0.78-0.57,1.15-0.82l3.71-2.43l2.05,0.6l-4.76,2.79l2.5,6.74l-2.07-0.61
		l-1.91-5.45l-1.16,0.71l-1.04,3.53l-1.69-0.5l4.05-13.76l1.69,0.5L336.98,18.89z"/>
	<path class="st0" d="M349.24,20.72c0.35-0.95,0.62-1.73,0.85-2.51l1.46,0.54l-0.47,1.51l0.06,0.02c0.83-0.68,1.99-1.18,3.5-0.62
		c1.25,0.46,1.92,1.57,1.91,2.8l0.04,0.01c0.47-0.41,0.98-0.67,1.47-0.81c0.7-0.21,1.39-0.21,2.27,0.11
		c1.21,0.45,2.71,1.91,1.53,5.1l-2,5.4l-1.63-0.6l1.93-5.19c0.65-1.76,0.4-3.06-0.94-3.56c-0.95-0.35-1.95,0.07-2.53,0.78
		c-0.16,0.2-0.33,0.48-0.44,0.78l-2.1,5.66l-1.63-0.6l2.04-5.49c0.54-1.46,0.29-2.76-0.98-3.23c-1.04-0.39-2.11,0.17-2.68,0.9
		c-0.19,0.21-0.33,0.48-0.44,0.76l-2.05,5.53l-1.63-0.6L349.24,20.72z"/>
	<path class="st0" d="M365.03,29.55c-0.92,2.22,0.1,3.74,1.73,4.45c1.17,0.51,1.96,0.61,2.69,0.61l-0.23,1.29
		c-0.69,0.01-1.8-0.12-3.23-0.74c-2.76-1.2-3.63-3.73-2.45-6.43c1.17-2.71,3.69-4.15,6.3-3.02c2.93,1.27,2.59,4.18,1.88,5.83
		c-0.14,0.33-0.29,0.58-0.38,0.74L365.03,29.55z M370.31,30.46c0.47-1.03,0.72-2.84-1.11-3.63c-1.65-0.71-3.03,0.49-3.65,1.57
		L370.31,30.46z"/>
	<path class="st0" d="M381.66,41.97c-0.52,0.01-1.59-0.16-2.76-0.75c-2.64-1.32-3.46-3.96-2.13-6.64c1.34-2.69,4.16-3.72,7.01-2.3
		c0.94,0.47,1.65,1.12,1.98,1.55l-0.97,1.05c-0.27-0.41-0.77-0.9-1.64-1.33c-2-1-3.83-0.06-4.74,1.76c-1.01,2.02-0.33,3.92,1.4,4.78
		c0.9,0.45,1.62,0.51,2.17,0.54L381.66,41.97z"/>
	<path class="st0" d="M390.02,30.6l1.57,0.84l-6.76,12.65l-1.57-0.84L390.02,30.6z"/>
	<path class="st0" d="M387.38,45.49l4.76-8.54l1.55,0.87l-4.76,8.54L387.38,45.49z M395.21,35.51c-0.28,0.54-0.9,0.75-1.52,0.4
		c-0.55-0.31-0.7-0.94-0.4-1.47c0.31-0.55,0.95-0.74,1.51-0.43C395.38,34.34,395.51,34.97,395.21,35.51z"/>
	<path class="st0" d="M397.61,51.01c-0.52-0.03-1.57-0.28-2.7-0.95c-2.54-1.51-3.16-4.2-1.64-6.77c1.54-2.59,4.42-3.41,7.17-1.78
		c0.9,0.54,1.57,1.24,1.86,1.69l-1.05,0.97c-0.24-0.42-0.7-0.96-1.53-1.45c-1.93-1.15-3.81-0.34-4.86,1.41
		c-1.16,1.94-0.62,3.89,1.05,4.88c0.87,0.52,1.58,0.63,2.12,0.7L397.61,51.01z"/>
	<path class="st0" d="M403.42,48.86l0.03,0.02c0.39-0.16,0.91-0.33,1.33-0.46l4.24-1.28l1.8,1.16l-5.35,1.33l0.5,7.17l-1.82-1.17
		l-0.3-5.77l-1.31,0.36l-1.99,3.09l-1.48-0.95l7.77-12.06l1.48,0.95L403.42,48.86z"/>
	<path class="st0" d="M414.65,54.07c0.6-0.81,1.08-1.49,1.52-2.17l1.25,0.93l-0.88,1.31l0.05,0.04c0.99-0.42,2.24-0.57,3.54,0.39
		c1.07,0.8,1.4,2.05,1.05,3.22l0.03,0.02c0.57-0.26,1.13-0.37,1.63-0.37c0.73-0.01,1.4,0.19,2.14,0.74c1.04,0.77,2.07,2.6,0.04,5.32
		l-3.44,4.61l-1.39-1.04l3.31-4.44c1.12-1.51,1.25-2.82,0.1-3.68c-0.81-0.6-1.89-0.48-2.65,0.04c-0.21,0.15-0.45,0.37-0.64,0.63
		l-3.61,4.84l-1.39-1.04l3.5-4.69c0.93-1.25,1.05-2.56-0.03-3.37c-0.89-0.66-2.07-0.43-2.83,0.11c-0.24,0.15-0.45,0.37-0.63,0.61
		l-3.52,4.73l-1.39-1.04L414.65,54.07z"/>
	<path class="st0" d="M427.33,66.99c-1.5,1.87-0.96,3.62,0.41,4.75c0.98,0.81,1.71,1.13,2.4,1.34l-0.58,1.17
		c-0.66-0.18-1.69-0.62-2.89-1.61c-2.31-1.92-2.43-4.59-0.55-6.86c1.88-2.27,4.71-2.94,6.89-1.12c2.46,2.04,1.31,4.74,0.16,6.12
		c-0.23,0.28-0.44,0.47-0.58,0.6L427.33,66.99z M432.15,69.34c0.74-0.86,1.49-2.52-0.05-3.8c-1.38-1.15-3.05-0.38-3.94,0.48
		L432.15,69.34z"/>
	<path class="st0" d="M439.81,83.58c-0.51-0.14-1.48-0.6-2.44-1.49c-2.16-2-2.21-4.78-0.18-6.97c2.05-2.21,5.04-2.41,7.38-0.24
		c0.77,0.71,1.27,1.54,1.46,2.05l-1.23,0.73c-0.15-0.47-0.48-1.08-1.2-1.74c-1.64-1.52-3.66-1.13-5.05,0.36
		c-1.54,1.66-1.42,3.67,0,4.99c0.74,0.69,1.41,0.95,1.93,1.13L439.81,83.58z"/>
	<path class="st0" d="M451.01,75l1.27,1.24l-10.03,10.25l-1.27-1.24L451.01,75z"/>
	<path class="st0" d="M444.33,88.56l6.96-6.86l1.25,1.27l-6.96,6.86L444.33,88.56z M454.64,81.18c-0.42,0.44-1.07,0.46-1.57-0.04
		c-0.44-0.45-0.41-1.1,0.03-1.53c0.45-0.44,1.12-0.45,1.57,0.01C455.13,80.1,455.08,80.74,454.64,81.18z"/>
	<path class="st0" d="M452.6,96.71c-0.49-0.17-1.43-0.71-2.33-1.67c-2.01-2.16-1.86-4.93,0.32-6.97c2.2-2.06,5.2-2.04,7.38,0.3
		c0.72,0.77,1.16,1.63,1.31,2.15L458,91.17c-0.11-0.48-0.41-1.11-1.07-1.82c-1.53-1.64-3.57-1.4-5.06,0
		c-1.65,1.54-1.68,3.56-0.36,4.98c0.69,0.74,1.34,1.05,1.84,1.26L452.6,96.71z"/>
	<path class="st0" d="M458.77,96.27l0.03,0.03c0.42-0.04,0.96-0.06,1.41-0.07l4.43-0.05l1.4,1.62l-5.51-0.21L459,104.6l-1.42-1.63
		l1.33-5.62l-1.36-0.02l-2.77,2.41l-1.15-1.33l10.82-9.4l1.15,1.33L458.77,96.27z"/>
	<path class="st0" d="M468.11,104.42c0.81-0.61,1.45-1.12,2.06-1.66l0.94,1.24l-1.21,1.01l0.04,0.05c1.07-0.13,2.31,0.08,3.28,1.37
		c0.8,1.06,0.77,2.36,0.11,3.39l0.02,0.03c0.62-0.09,1.19-0.04,1.67,0.1c0.71,0.2,1.29,0.57,1.85,1.31
		c0.78,1.03,1.26,3.07-1.45,5.12l-4.59,3.47l-1.05-1.39l4.42-3.34c1.5-1.13,1.99-2.36,1.12-3.51c-0.61-0.81-1.68-0.98-2.56-0.7
		c-0.24,0.08-0.54,0.23-0.79,0.42l-4.82,3.64l-1.05-1.39l4.67-3.53c1.24-0.94,1.73-2.17,0.91-3.25c-0.67-0.89-1.87-0.99-2.75-0.68
		c-0.27,0.08-0.54,0.23-0.78,0.41l-4.71,3.56l-1.05-1.39L468.11,104.42z"/>
	<path class="st0" d="M476.67,120.37c-1.97,1.38-1.93,3.21-0.93,4.68c0.71,1.05,1.33,1.57,1.93,1.96l-0.89,0.96
		c-0.58-0.36-1.45-1.07-2.32-2.36c-1.68-2.49-1.05-5.09,1.39-6.74c2.44-1.65,5.34-1.51,6.94,0.85c1.79,2.65-0.07,4.92-1.56,5.93
		c-0.3,0.2-0.56,0.33-0.72,0.41L476.67,120.37z M480.64,123.97c0.95-0.62,2.13-2,1.01-3.66c-1.01-1.49-2.82-1.22-3.92-0.64
		L480.64,123.97z"/>
	<path class="st0" d="M484.02,139.79c-0.45-0.27-1.25-0.99-1.93-2.12c-1.52-2.53-0.79-5.2,1.77-6.74c2.58-1.55,5.51-0.9,7.15,1.83
		c0.54,0.9,0.79,1.83,0.83,2.37l-1.38,0.36c-0.01-0.49-0.16-1.17-0.66-2.01c-1.15-1.92-3.2-2.11-4.95-1.06
		c-1.94,1.16-2.39,3.13-1.39,4.79c0.52,0.87,1.09,1.3,1.54,1.62L484.02,139.79z"/>
	<path class="st0" d="M497.17,134.68l0.87,1.55l-12.5,7.04l-0.87-1.55L497.17,134.68z"/>
	<path class="st0" d="M486.95,145.83l8.6-4.64l0.84,1.56l-8.6,4.64L486.95,145.83z M498.91,141.63c-0.52,0.31-1.16,0.14-1.5-0.48
		c-0.3-0.55-0.08-1.17,0.45-1.46c0.55-0.3,1.2-0.12,1.5,0.45C499.69,140.73,499.46,141.33,498.91,141.63z"/>
	<path class="st0" d="M492.61,155.98c-0.43-0.31-1.18-1.08-1.77-2.25c-1.33-2.63-0.41-5.25,2.26-6.59c2.69-1.35,5.56-0.5,7,2.35
		c0.47,0.94,0.66,1.89,0.66,2.43l-1.41,0.26c0.03-0.49-0.08-1.18-0.51-2.05c-1.01-2-3.03-2.34-4.86-1.42
		c-2.02,1.02-2.61,2.94-1.74,4.68c0.46,0.9,0.99,1.38,1.42,1.73L492.61,155.98z"/>
	<path class="st0" d="M498.67,157.3l0.02,0.04c0.41,0.08,0.94,0.21,1.37,0.33l4.26,1.2l0.89,1.95l-5.23-1.75l-3.43,6.31l-0.9-1.96
		l2.85-5.02l-1.3-0.4l-3.34,1.54l-0.73-1.6l13.03-5.99l0.73,1.6L498.67,157.3z"/>
	<path class="st0" d="M505.33,167.71c0.94-0.36,1.71-0.67,2.45-1.01l0.55,1.45l-1.44,0.63l0.02,0.06c1.06,0.18,2.2,0.72,2.77,2.23
		c0.47,1.25,0.08,2.48-0.85,3.28l0.01,0.04c0.62,0.09,1.15,0.3,1.58,0.57c0.62,0.39,1.08,0.91,1.41,1.78
		c0.46,1.21,0.34,3.3-2.83,4.51l-5.38,2.04l-0.62-1.62l5.18-1.96c1.76-0.67,2.57-1.71,2.06-3.05c-0.36-0.94-1.33-1.42-2.25-1.39
		c-0.26,0.01-0.58,0.07-0.88,0.18l-5.65,2.14l-0.62-1.62l5.48-2.08c1.46-0.55,2.27-1.59,1.79-2.86c-0.39-1.04-1.51-1.48-2.44-1.43
		c-0.28,0-0.58,0.07-0.86,0.18l-5.52,2.09l-0.62-1.62L505.33,167.71z"/>
	<path class="st0" d="M509.06,185.45c-2.28,0.77-2.75,2.53-2.21,4.22c0.39,1.21,0.83,1.88,1.3,2.43l-1.12,0.67
		c-0.46-0.51-1.09-1.43-1.56-2.91c-0.91-2.87,0.43-5.18,3.23-6.08c2.81-0.9,5.55,0.05,6.42,2.77c0.97,3.04-1.45,4.7-3.16,5.25
		c-0.35,0.11-0.63,0.16-0.81,0.19L509.06,185.45z M511.86,190.03c1.08-0.32,2.61-1.32,2-3.22c-0.55-1.71-2.36-1.96-3.58-1.72
		L511.86,190.03z"/>
	<path class="st0" d="M510.63,206.14c-0.35-0.39-0.92-1.3-1.25-2.58c-0.74-2.85,0.71-5.21,3.61-5.96c2.91-0.75,5.54,0.69,6.34,3.78
		c0.26,1.02,0.24,1.98,0.13,2.51l-1.43-0.05c0.13-0.47,0.18-1.17-0.07-2.11c-0.56-2.17-2.47-2.93-4.44-2.42
		c-2.19,0.57-3.17,2.32-2.69,4.2c0.25,0.98,0.67,1.56,1.02,1.99L510.63,206.14z"/>
	<path class="st0" d="M524.69,204.96l0.4,1.73l-13.98,3.22l-0.4-1.73L524.69,204.96z"/>
	<path class="st0" d="M511.74,212.78l9.56-2.02l0.37,1.74l-9.56,2.02L511.74,212.78z M524.4,212.13c-0.59,0.14-1.16-0.19-1.3-0.88
		c-0.13-0.61,0.25-1.15,0.85-1.27c0.61-0.13,1.18,0.23,1.32,0.86C525.4,211.49,525.01,212,524.4,212.13z"/>
	<path class="st0" d="M514.3,224.1c-0.32-0.41-0.83-1.37-1.06-2.66c-0.53-2.9,1.09-5.15,4.03-5.69c2.96-0.54,5.48,1.09,6.05,4.23
		c0.19,1.03,0.1,1.99-0.05,2.51l-1.42-0.15c0.16-0.46,0.26-1.16,0.09-2.11c-0.4-2.21-2.25-3.1-4.26-2.73
		c-2.22,0.41-3.33,2.09-2.99,4c0.18,0.99,0.56,1.6,0.87,2.06L514.3,224.1z"/>
	<path class="st0" d="M519.73,227.08l0.01,0.04c0.37,0.19,0.84,0.47,1.22,0.7l3.75,2.35l0.31,2.12l-4.52-3.16l-5.08,5.08l-0.31-2.14
		l4.15-4.01l-1.13-0.75l-3.64,0.53l-0.25-1.74l14.19-2.06l0.25,1.74L519.73,227.08z"/>
	<path class="st0" d="M523.19,238.97c1.01-0.08,1.83-0.16,2.63-0.28l0.12,1.55l-1.57,0.2l0,0.06c0.97,0.47,1.9,1.31,2.02,2.93
		c0.1,1.33-0.63,2.4-1.75,2.91l0,0.04c0.57,0.26,1.02,0.61,1.35,0.99c0.49,0.55,0.78,1.18,0.85,2.1c0.1,1.29-0.6,3.27-3.99,3.52
		l-5.74,0.44l-0.13-1.73l5.52-0.42c1.87-0.14,2.95-0.91,2.84-2.34c-0.08-1.01-0.88-1.74-1.77-1.97c-0.25-0.06-0.57-0.1-0.9-0.07
		l-6.02,0.46l-0.13-1.73l5.84-0.44c1.55-0.12,2.63-0.89,2.52-2.24c-0.08-1.11-1.03-1.85-1.94-2.06c-0.27-0.08-0.58-0.1-0.88-0.08
		l-5.88,0.45l-0.13-1.73L523.19,238.97z"/>
	<path class="st0" d="M521.76,257c-2.4,0.1-3.35,1.65-3.31,3.43c0.03,1.27,0.27,2.03,0.57,2.69l-1.26,0.33
		c-0.3-0.62-0.65-1.68-0.68-3.24c-0.07-3.01,1.87-4.85,4.81-4.92c2.95-0.07,5.31,1.61,5.38,4.46c0.07,3.19-2.71,4.1-4.51,4.15
		c-0.36,0.01-0.65-0.03-0.83-0.04L521.76,257z M523.16,262.18c1.13-0.01,2.88-0.53,2.83-2.53c-0.04-1.8-1.72-2.54-2.95-2.66
		L523.16,262.18z"/>
	<path class="st0" d="M517.47,277.33c-0.23-0.47-0.52-1.51-0.48-2.82c0.09-2.95,2.14-4.81,5.13-4.72c3.01,0.09,5.13,2.21,5.03,5.4
		c-0.03,1.05-0.32,1.97-0.58,2.45l-1.36-0.44c0.25-0.42,0.5-1.08,0.52-2.04c0.07-2.24-1.55-3.5-3.59-3.56
		c-2.26-0.07-3.7,1.35-3.75,3.28c-0.03,1.01,0.21,1.68,0.42,2.19L517.47,277.33z"/>
	<path class="st0" d="M531.3,280.11l-0.1,1.78l-14.32-0.81l0.1-1.78L531.3,280.11z"/>
	<path class="st0" d="M516.69,283.99l9.75,0.73l-0.13,1.77l-9.75-0.73L516.69,283.99z M529.03,286.9c-0.61-0.03-1.06-0.5-1-1.21
		c0.05-0.62,0.56-1.03,1.17-0.99c0.62,0.05,1.07,0.55,1.02,1.19C530.17,286.56,529.65,286.95,529.03,286.9z"/>
	<path class="st0" d="M515.99,295.58c-0.19-0.49-0.41-1.54-0.28-2.85c0.3-2.93,2.48-4.64,5.46-4.34c3,0.3,4.96,2.58,4.63,5.75
		c-0.11,1.04-0.46,1.94-0.75,2.4l-1.33-0.54c0.28-0.4,0.57-1.04,0.67-2c0.23-2.23-1.3-3.6-3.33-3.81c-2.25-0.23-3.78,1.08-3.98,3.01
		c-0.1,1,0.09,1.69,0.26,2.22L515.99,295.58z"/>
	<path class="st0" d="M520.38,299.95l-0.01,0.04c0.31,0.29,0.68,0.69,0.98,1.01l2.95,3.3l-0.29,2.12l-3.46-4.29l-6.29,3.47l0.3-2.14
		l5.1-2.7l-0.88-1.04l-3.64-0.5l0.24-1.74l14.2,1.97l-0.24,1.74L520.38,299.95z"/>
	<path class="st0" d="M520.39,312.34c0.99,0.21,1.8,0.36,2.61,0.46l-0.32,1.52l-1.56-0.25l-0.01,0.06c0.8,0.72,1.46,1.79,1.13,3.38
		c-0.27,1.3-1.27,2.13-2.49,2.31l-0.01,0.04c0.47,0.41,0.81,0.87,1.02,1.33c0.31,0.66,0.42,1.35,0.23,2.26
		c-0.27,1.27-1.49,2.97-4.81,2.27l-5.64-1.18l0.36-1.7l5.42,1.14c1.84,0.39,3.09-0.05,3.38-1.46c0.21-0.99-0.36-1.91-1.15-2.39
		c-0.22-0.13-0.52-0.25-0.84-0.32l-5.91-1.24l0.36-1.7l5.73,1.2c1.52,0.32,2.77-0.12,3.05-1.45c0.23-1.09-0.48-2.06-1.29-2.52
		c-0.24-0.15-0.52-0.25-0.82-0.32l-5.77-1.21l0.36-1.7L520.39,312.34z"/>
	<path class="st0" d="M513.99,329.27c-2.33-0.58-3.68,0.65-4.14,2.37c-0.33,1.23-0.31,2.03-0.21,2.74l-1.31-0.03
		c-0.11-0.68-0.15-1.79,0.25-3.3c0.77-2.91,3.15-4.14,6-3.38c2.85,0.76,4.65,3.03,3.92,5.78c-0.82,3.08-3.75,3.18-5.49,2.72
		c-0.35-0.09-0.61-0.21-0.79-0.27L513.99,329.27z M513.88,334.63c1.09,0.31,2.91,0.29,3.42-1.64c0.46-1.74-0.94-2.92-2.09-3.38
		L513.88,334.63z"/>
	<path class="st0" d="M504.17,347.57c-0.09-0.52-0.07-1.6,0.33-2.85c0.91-2.8,3.41-4.01,6.25-3.08c2.86,0.93,4.3,3.57,3.31,6.6
		c-0.33,1-0.86,1.8-1.24,2.19l-1.18-0.81c0.36-0.33,0.78-0.89,1.08-1.82c0.69-2.13-0.51-3.8-2.45-4.43c-2.15-0.7-3.93,0.25-4.53,2.1
		c-0.31,0.96-0.27,1.68-0.21,2.22L504.17,347.57z"/>
	<path class="st0" d="M516.65,354.14l-0.6,1.67L502.54,351l0.6-1.67L516.65,354.14z"/>
	<path class="st0" d="M501.54,353.76l9.15,3.45l-0.63,1.66l-9.15-3.45L501.54,353.76z M512.56,360.03c-0.57-0.2-0.87-0.78-0.62-1.44
		c0.22-0.59,0.83-0.83,1.4-0.62c0.59,0.22,0.88,0.83,0.65,1.43C513.75,360.02,513.14,360.25,512.56,360.03z"/>
	<path class="st0" d="M497.59,364.67c-0.05-0.52,0.04-1.6,0.54-2.81c1.12-2.73,3.69-3.75,6.46-2.62c2.79,1.14,4.02,3.87,2.82,6.82
		c-0.4,0.97-0.99,1.73-1.4,2.09l-1.12-0.89c0.38-0.3,0.84-0.83,1.21-1.73c0.85-2.08-0.23-3.82-2.11-4.6
		c-2.09-0.86-3.93-0.04-4.67,1.76c-0.38,0.93-0.39,1.65-0.38,2.2L497.59,364.67z"/>
	<path class="st0" d="M500.57,370.11l-0.02,0.04c0.21,0.36,0.46,0.85,0.65,1.25l1.89,4l-0.88,1.95l-2.11-5.1l-7.02,1.55l0.89-1.97
		l5.66-1.14l-0.55-1.24l-3.35-1.51l0.72-1.6l13.07,5.9l-0.72,1.6L500.57,370.11z"/>
	<path class="st0" d="M497.08,381.98c0.89,0.48,1.63,0.85,2.37,1.18l-0.74,1.37l-1.43-0.68l-0.03,0.05
		c0.56,0.92,0.89,2.13,0.13,3.56c-0.63,1.17-1.82,1.68-3.04,1.51l-0.02,0.04c0.34,0.53,0.53,1.06,0.6,1.56
		c0.11,0.73,0.02,1.41-0.42,2.23c-0.61,1.14-2.27,2.43-5.26,0.82l-5.07-2.73l0.82-1.53l4.88,2.62c1.65,0.89,2.98,0.82,3.66-0.44
		c0.48-0.89,0.19-1.94-0.43-2.62c-0.17-0.19-0.43-0.39-0.72-0.55l-5.32-2.86l0.82-1.53l5.16,2.77c1.37,0.74,2.69,0.67,3.33-0.52
		c0.53-0.98,0.13-2.11-0.52-2.78c-0.18-0.21-0.43-0.39-0.7-0.54l-5.2-2.79l0.82-1.53L497.08,381.98z"/>
	<path class="st0" d="M486.16,396.42c-2.07-1.21-3.72-0.42-4.64,1.1c-0.66,1.09-0.87,1.86-0.97,2.57l-1.24-0.4
		c0.08-0.68,0.36-1.76,1.17-3.09c1.56-2.57,4.19-3.08,6.71-1.55c2.52,1.53,3.6,4.22,2.13,6.65c-1.66,2.73-4.5,1.99-6.03,1.06
		c-0.31-0.19-0.53-0.37-0.68-0.48L486.16,396.42z M484.54,401.53c0.96,0.6,2.71,1.1,3.75-0.61c0.93-1.54-0.07-3.07-1.05-3.83
		L484.54,401.53z"/>
	<path class="st0" d="M471.57,411.2c0.06-0.52,0.38-1.55,1.12-2.63c1.67-2.43,4.4-2.89,6.87-1.2c2.48,1.7,3.12,4.63,1.31,7.27
		c-0.59,0.87-1.33,1.48-1.81,1.75l-0.91-1.11c0.44-0.21,1-0.64,1.55-1.44c1.27-1.85,0.58-3.79-1.1-4.94
		c-1.87-1.28-3.84-0.87-4.93,0.73c-0.57,0.83-0.73,1.53-0.83,2.07L471.57,411.2z"/>
	<path class="st0" d="M481.71,421.02l-1.04,1.44l-11.61-8.42l1.04-1.44L481.71,421.02z"/>
	<path class="st0" d="M467.32,416.39l7.81,5.89l-1.07,1.42l-7.81-5.89L467.32,416.39z M476.12,425.51c-0.5-0.35-0.62-1-0.19-1.56
		c0.38-0.5,1.03-0.56,1.52-0.2c0.5,0.38,0.61,1.04,0.22,1.56C477.27,425.84,476.62,425.89,476.12,425.51z"/>
	<path class="st0" d="M460.46,425.76c0.1-0.51,0.49-1.52,1.31-2.55c1.84-2.31,4.6-2.56,6.93-0.7c2.35,1.88,2.77,4.85,0.79,7.34
		c-0.65,0.82-1.44,1.38-1.93,1.61l-0.82-1.17c0.45-0.18,1.04-0.56,1.65-1.32c1.4-1.75,0.86-3.73-0.74-5
		c-1.77-1.41-3.76-1.14-4.97,0.38c-0.63,0.79-0.84,1.47-0.98,2.01L460.46,425.76z"/>
	<path class="st0" d="M461.78,431.84l-0.03,0.03c0.1,0.41,0.2,0.94,0.28,1.38l0.69,4.37l-1.39,1.63l-0.59-5.48l-7.17-0.48l1.41-1.64
		l5.75,0.49l-0.17-1.35l-2.79-2.39l1.14-1.33l10.89,9.34l-1.14,1.33L461.78,431.84z"/>
	<path class="st0" d="M455.11,442.24c0.72,0.71,1.33,1.27,1.94,1.8l-1.09,1.11l-1.18-1.05l-0.04,0.04c0.28,1.04,0.26,2.3-0.87,3.45
		c-0.93,0.95-2.22,1.1-3.34,0.6l-0.03,0.03c0.18,0.6,0.21,1.17,0.14,1.67c-0.09,0.73-0.37,1.36-1.03,2.02
		c-0.91,0.92-2.86,1.7-5.28-0.68l-4.11-4.04l1.22-1.24l3.95,3.88c1.34,1.32,2.63,1.62,3.63,0.6c0.71-0.72,0.73-1.81,0.32-2.63
		c-0.12-0.23-0.3-0.5-0.54-0.72l-4.31-4.23l1.22-1.24l4.18,4.11c1.11,1.09,2.4,1.39,3.35,0.43c0.78-0.79,0.71-1.99,0.28-2.82
		c-0.12-0.26-0.3-0.5-0.52-0.71l-4.21-4.13l1.22-1.24L455.11,442.24z"/>
	<path class="st0" d="M440.58,453.04c-1.65-1.75-3.45-1.44-4.76-0.24c-0.94,0.86-1.35,1.54-1.65,2.2l-1.08-0.73
		c0.27-0.63,0.84-1.59,1.99-2.64c2.22-2.03,4.88-1.79,6.87,0.39c1.99,2.17,2.28,5.06,0.18,6.98c-2.35,2.16-4.87,0.66-6.09-0.67
		c-0.25-0.27-0.41-0.5-0.51-0.65L440.58,453.04z M437.59,457.5c0.75,0.85,2.29,1.82,3.77,0.47c1.33-1.21,0.79-2.97,0.06-3.97
		L437.59,457.5z"/>
	<path class="st0" d="M422.45,463.16c0.21-0.48,0.8-1.39,1.81-2.22c2.28-1.87,5.03-1.54,6.93,0.77c1.91,2.33,1.7,5.32-0.76,7.34
		c-0.81,0.67-1.7,1.05-2.22,1.17l-0.56-1.32c0.48-0.08,1.14-0.33,1.89-0.95c1.73-1.42,1.62-3.47,0.32-5.05
		c-1.44-1.75-3.44-1.9-4.94-0.67c-0.78,0.64-1.13,1.27-1.38,1.76L422.45,463.16z"/>
	<path class="st0" d="M429.42,475.42l-1.4,1.09l-8.8-11.33l1.4-1.09L429.42,475.42z"/>
	<path class="st0" d="M416.9,466.95l5.85,7.83l-1.42,1.06l-5.85-7.83L416.9,466.95z M422.81,478.16c-0.38-0.47-0.31-1.13,0.25-1.55
		c0.5-0.38,1.15-0.25,1.51,0.23c0.37,0.5,0.29,1.17-0.23,1.55C423.81,478.8,423.18,478.67,422.81,478.16z"/>
	<path class="st0" d="M407.69,474.05c0.24-0.47,0.89-1.32,1.97-2.08c2.41-1.7,5.13-1.18,6.85,1.26c1.74,2.46,1.31,5.43-1.29,7.27
		c-0.86,0.61-1.77,0.93-2.3,1.01l-0.46-1.35c0.49-0.05,1.16-0.25,1.95-0.81c1.83-1.29,1.87-3.35,0.69-5.01
		c-1.31-1.85-3.3-2.15-4.88-1.03c-0.83,0.58-1.22,1.18-1.5,1.66L407.69,474.05z"/>
	<path class="st0" d="M407.28,480.22l-0.03,0.02c-0.01,0.42-0.07,0.96-0.12,1.41l-0.56,4.39l-1.79,1.17l0.96-5.43l-6.75-2.46
		l1.81-1.18l5.39,2.08l0.21-1.34l-2.01-3.08l1.47-0.96l7.84,12l-1.47,0.96L407.28,480.22z"/>
	<path class="st0" d="M397.94,488.36c0.49,0.88,0.91,1.59,1.36,2.27l-1.36,0.76l-0.84-1.33l-0.05,0.03
		c-0.02,1.08-0.39,2.28-1.8,3.07c-1.16,0.65-2.44,0.44-3.37-0.36l-0.04,0.02c0,0.62-0.13,1.18-0.33,1.64
		c-0.29,0.67-0.74,1.2-1.55,1.65c-1.13,0.63-3.22,0.83-4.87-2.13l-2.81-5.02l1.52-0.85l2.7,4.83c0.92,1.64,2.07,2.29,3.32,1.59
		c0.88-0.49,1.2-1.53,1.04-2.44c-0.05-0.25-0.15-0.56-0.31-0.84l-2.95-5.27l1.52-0.85l2.86,5.11c0.76,1.36,1.91,2.01,3.09,1.35
		c0.97-0.54,1.24-1.71,1.05-2.63c-0.04-0.28-0.15-0.56-0.3-0.83l-2.88-5.15l1.52-0.85L397.94,488.36z"/>
	<path class="st0" d="M380.99,494.65c-1.1-2.14-2.91-2.35-4.51-1.57c-1.14,0.56-1.73,1.1-2.21,1.65l-0.83-1.01
		c0.44-0.53,1.25-1.29,2.65-1.98c2.7-1.33,5.19-0.34,6.49,2.3c1.3,2.65,0.77,5.5-1.79,6.75c-2.86,1.41-4.86-0.74-5.66-2.35
		c-0.16-0.33-0.25-0.6-0.31-0.77L380.99,494.65z M376.87,498.1c0.48,1.02,1.69,2.39,3.49,1.5c1.61-0.79,1.59-2.63,1.17-3.79
		L376.87,498.1z"/>
	<path class="st0" d="M360.72,499.28c0.33-0.41,1.15-1.11,2.36-1.62c2.71-1.15,5.26-0.07,6.43,2.69c1.18,2.77,0.14,5.58-2.8,6.83
		c-0.97,0.41-1.92,0.53-2.46,0.5l-0.17-1.42c0.49,0.06,1.19,0,2.08-0.38c2.06-0.88,2.53-2.88,1.73-4.75
		c-0.89-2.08-2.77-2.79-4.55-2.04c-0.93,0.39-1.44,0.9-1.82,1.3L360.72,499.28z"/>
	<path class="st0" d="M363.99,513.01l-1.65,0.65l-5.25-13.35l1.65-0.65L363.99,513.01z"/>
	<path class="st0" d="M354.35,501.36l3.41,9.17l-1.67,0.62l-3.41-9.17L354.35,501.36z M356.86,513.79
		c-0.23-0.56,0.02-1.17,0.68-1.42c0.59-0.22,1.17,0.08,1.38,0.65c0.22,0.59-0.05,1.2-0.65,1.43
		C357.65,514.69,357.08,514.38,356.86,513.79z"/>
	<path class="st0" d="M343.53,505.56c0.36-0.38,1.23-1.02,2.47-1.44c2.79-0.95,5.25,0.32,6.22,3.15c0.97,2.85-0.27,5.58-3.29,6.61
		c-0.99,0.34-1.96,0.39-2.5,0.32l-0.06-1.43c0.48,0.09,1.18,0.09,2.1-0.23c2.12-0.72,2.73-2.68,2.07-4.62
		c-0.73-2.14-2.56-2.99-4.39-2.36c-0.96,0.33-1.5,0.79-1.91,1.16L343.53,505.56z"/>
	<path class="st0" d="M341.38,511.39l-0.04,0.01c-0.13,0.4-0.34,0.9-0.51,1.31l-1.77,4.06l-2.05,0.62l2.46-4.94l-5.78-4.27
		l2.07-0.62l4.58,3.52l0.58-1.23l-1.06-3.52l1.68-0.51l4.14,13.74l-1.68,0.51L341.38,511.39z"/>
	<path class="st0" d="M330.14,516.56c0.22,0.99,0.43,1.79,0.67,2.56l-1.52,0.35l-0.43-1.52l-0.06,0.01
		c-0.33,1.03-1.02,2.08-2.6,2.43c-1.3,0.3-2.46-0.27-3.13-1.3l-0.04,0.01c-0.17,0.6-0.45,1.1-0.78,1.48
		c-0.47,0.56-1.05,0.94-1.96,1.15c-1.26,0.29-3.32-0.11-4.07-3.42l-1.28-5.61l1.69-0.39l1.23,5.4c0.42,1.83,1.34,2.78,2.74,2.46
		c0.98-0.22,1.59-1.13,1.69-2.04c0.03-0.25,0.01-0.58-0.06-0.9l-1.34-5.89l1.69-0.39l1.3,5.71c0.34,1.52,1.27,2.47,2.59,2.17
		c1.08-0.25,1.67-1.29,1.75-2.22c0.04-0.28,0.01-0.58-0.05-0.88l-1.31-5.75l1.69-0.39L330.14,516.56z"/>
	<path class="st0" d="M312.09,517.81c-0.45-2.36-2.13-3.08-3.88-2.78c-1.25,0.22-1.97,0.57-2.58,0.96l-0.51-1.2
		c0.57-0.38,1.57-0.89,3.1-1.15c2.97-0.51,5.08,1.13,5.58,4.04s-0.82,5.49-3.62,5.98c-3.15,0.54-4.46-2.08-4.77-3.85
		c-0.06-0.36-0.07-0.64-0.08-0.83L312.09,517.81z M307.17,519.95c0.17,1.12,0.95,2.77,2.92,2.43c1.77-0.31,2.27-2.07,2.2-3.31
		L307.17,519.95z"/>
	<path class="st0" d="M291.35,516.52c0.43-0.29,1.42-0.73,2.72-0.89c2.93-0.34,5.07,1.42,5.41,4.39c0.35,2.99-1.45,5.4-4.62,5.76
		c-1.04,0.12-2-0.03-2.51-0.22l0.24-1.41c0.45,0.19,1.14,0.33,2.1,0.22c2.23-0.26,3.24-2.04,3-4.07c-0.26-2.25-1.87-3.46-3.79-3.24
		c-1,0.12-1.63,0.46-2.11,0.73L291.35,516.52z"/>
	<path class="st0" d="M290.6,530.61l-1.77,0.16l-1.28-14.29l1.77-0.16L290.6,530.61z"/>
	<path class="st0" d="M284.64,516.72l0.69,9.76l-1.77,0.13l-0.69-9.76L284.64,516.72z M283.55,529.35c-0.06-0.6,0.35-1.12,1.05-1.17
		c0.62-0.04,1.1,0.41,1.15,1.01c0.04,0.63-0.38,1.14-1.03,1.19C284.05,530.43,283.6,529.98,283.55,529.35z"/>
	<path class="st0" d="M273.05,517.7c0.45-0.26,1.47-0.63,2.78-0.69c2.95-0.13,4.95,1.79,5.08,4.77c0.13,3.01-1.83,5.28-5.02,5.42
		c-1.05,0.05-1.99-0.18-2.48-0.4l0.34-1.39c0.43,0.22,1.11,0.42,2.08,0.37c2.24-0.1,3.38-1.81,3.29-3.85
		c-0.1-2.26-1.61-3.59-3.55-3.5c-1.01,0.04-1.66,0.34-2.16,0.58L273.05,517.7z"/>
	<path class="st0" d="M269.39,522.67h-0.04c-0.24,0.35-0.57,0.78-0.85,1.13l-2.82,3.42l-2.14,0.03l3.71-4.08l-4.39-5.69l2.16-0.03
		l3.45,4.63l0.89-1.02l-0.06-3.68l1.76-0.03l0.23,14.34l-1.76,0.03L269.39,522.67z"/>
	<path class="st0" d="M257.15,524.5c-0.06,1.01-0.09,1.84-0.08,2.65l-1.55-0.09l0.01-1.58l-0.06,0c-0.6,0.9-1.56,1.71-3.17,1.61
		c-1.33-0.08-2.29-0.94-2.65-2.12l-0.04,0c-0.33,0.53-0.74,0.93-1.17,1.21c-0.61,0.41-1.27,0.61-2.2,0.56
		c-1.29-0.08-3.16-1.04-2.96-4.43l0.34-5.75l1.73,0.1l-0.33,5.53c-0.11,1.88,0.51,3.05,1.94,3.13c1.01,0.06,1.84-0.64,2.19-1.49
		c0.09-0.24,0.17-0.56,0.19-0.88l0.36-6.03l1.73,0.1l-0.34,5.85c-0.09,1.55,0.53,2.72,1.88,2.8c1.11,0.07,1.97-0.77,2.3-1.64
		c0.12-0.26,0.17-0.56,0.19-0.86l0.35-5.89l1.73,0.1L257.15,524.5z"/>
	<path class="st0" d="M239.43,520.66c0.23-2.39-1.19-3.55-2.95-3.75c-1.27-0.14-2.05-0.01-2.75,0.2l-0.16-1.3
		c0.65-0.21,1.75-0.41,3.3-0.24c2.99,0.34,4.56,2.51,4.23,5.44c-0.33,2.93-2.32,5.05-5.15,4.73c-3.17-0.36-3.7-3.24-3.5-5.03
		c0.04-0.36,0.11-0.64,0.15-0.82L239.43,520.66z M234.11,521.35c-0.15,1.12,0.14,2.92,2.13,3.15c1.79,0.2,2.75-1.36,3.03-2.57
		L234.11,521.35z"/>
	<path class="st0" d="M219.89,513.65c0.5-0.16,1.57-0.31,2.86-0.09c2.91,0.49,4.47,2.78,3.98,5.73c-0.5,2.97-2.89,4.78-6.04,4.25
		c-1.04-0.17-1.91-0.59-2.35-0.91l0.63-1.29c0.38,0.31,1,0.64,1.96,0.8c2.21,0.37,3.68-1.06,4.02-3.08
		c0.37-2.23-0.83-3.85-2.74-4.17c-1-0.17-1.7-0.02-2.23,0.12L219.89,513.65z"/>
	<path class="st0" d="M215.26,526.98l-1.75-0.34l2.75-14.07l1.74,0.34L215.26,526.98z"/>
	<path class="st0" d="M208.84,523.8c0.11-0.6,0.64-0.98,1.33-0.83c0.61,0.13,0.95,0.7,0.82,1.29c-0.13,0.61-0.69,0.99-1.32,0.85
		C209.02,524.97,208.71,524.41,208.84,523.8z M213.41,511.97l-2.05,9.56l-1.74-0.37l2.05-9.56L213.41,511.97z"/>
	<path class="st0" d="M202.01,509.68c0.51-0.13,1.59-0.2,2.86,0.12c2.87,0.7,4.25,3.1,3.55,6c-0.71,2.92-3.23,4.55-6.33,3.8
		c-1.02-0.25-1.86-0.72-2.27-1.08l0.72-1.24c0.35,0.34,0.95,0.71,1.89,0.94c2.18,0.53,3.75-0.79,4.23-2.77
		c0.54-2.2-0.55-3.9-2.43-4.36c-0.98-0.24-1.69-0.14-2.23-0.05L202.01,509.68z"/>
	<path class="st0" d="M197.07,513.44l-0.04-0.01c-0.33,0.26-0.77,0.58-1.14,0.83l-3.68,2.47l-2.06-0.58l4.73-2.84l-2.58-6.71
		l2.08,0.59l1.97,5.43l1.15-0.72l1-3.54l1.69,0.48l-3.9,13.8l-1.69-0.48L197.07,513.44z"/>
	<path class="st0" d="M184.82,511.75c-0.34,0.95-0.6,1.74-0.82,2.52l-1.46-0.53l0.46-1.51l-0.06-0.02c-0.83,0.69-1.98,1.2-3.5,0.66
		c-1.25-0.45-1.93-1.55-1.94-2.78l-0.04-0.01c-0.47,0.41-0.97,0.68-1.46,0.83c-0.7,0.22-1.39,0.23-2.27-0.08
		c-1.22-0.44-2.74-1.88-1.59-5.08l1.94-5.42l1.63,0.59l-1.87,5.21c-0.63,1.77-0.37,3.06,0.98,3.55c0.95,0.34,1.94-0.1,2.52-0.81
		c0.16-0.2,0.32-0.48,0.43-0.79l2.04-5.68l1.64,0.59l-1.98,5.51c-0.53,1.46-0.26,2.76,1.01,3.22c1.04,0.37,2.11-0.19,2.67-0.93
		c0.18-0.21,0.32-0.49,0.43-0.77l1.99-5.55l1.64,0.59L184.82,511.75z"/>
	<path class="st0" d="M168.93,503.08c0.89-2.23-0.14-3.74-1.78-4.43c-1.17-0.49-1.97-0.59-2.69-0.58l0.21-1.29
		c0.69-0.02,1.8,0.1,3.23,0.7c2.77,1.17,3.66,3.69,2.52,6.41s-3.64,4.19-6.27,3.08c-2.94-1.24-2.64-4.15-1.94-5.81
		c0.14-0.33,0.29-0.58,0.38-0.74L168.93,503.08z M163.63,502.23c-0.46,1.04-0.69,2.84,1.15,3.62c1.66,0.7,3.02-0.52,3.63-1.61
		L163.63,502.23z"/>
	<path class="st0" d="M152.15,490.83c0.52-0.01,1.59,0.15,2.77,0.72c2.65,1.29,3.51,3.93,2.2,6.62c-1.32,2.71-4.12,3.77-7,2.37
		c-0.94-0.46-1.67-1.1-2-1.53l0.96-1.06c0.28,0.4,0.78,0.89,1.65,1.32c2.02,0.98,3.83,0.02,4.72-1.81c0.99-2.04,0.29-3.93-1.45-4.77
		c-0.91-0.44-1.62-0.5-2.17-0.52L152.15,490.83z"/>
	<path class="st0" d="M143.93,502.29l-1.58-0.82l6.62-12.72l1.58,0.82L143.93,502.29z"/>
	<path class="st0" d="M138.66,497.44c0.27-0.54,0.89-0.75,1.52-0.42c0.55,0.3,0.71,0.94,0.42,1.47c-0.3,0.55-0.94,0.75-1.51,0.45
		C138.5,498.61,138.36,497.99,138.66,497.44z M146.39,487.38l-4.67,8.59l-1.56-0.85l4.67-8.59L146.39,487.38z"/>
	<path class="st0" d="M136.12,481.98c0.52,0.02,1.58,0.26,2.71,0.92c2.55,1.48,3.21,4.17,1.71,6.76c-1.51,2.6-4.39,3.46-7.15,1.86
		c-0.91-0.53-1.58-1.22-1.88-1.67l1.04-0.99c0.25,0.42,0.71,0.95,1.55,1.44c1.94,1.13,3.82,0.3,4.84-1.46
		c1.13-1.96,0.58-3.89-1.1-4.86c-0.87-0.51-1.58-0.61-2.13-0.67L136.12,481.98z"/>
	<path class="st0" d="M130.31,484.17l-0.03-0.02c-0.39,0.16-0.9,0.34-1.33,0.48l-4.22,1.33l-1.81-1.14l5.34-1.39l-0.58-7.16
		l1.83,1.15l0.36,5.76l1.31-0.37l1.96-3.11l1.49,0.94l-7.64,12.13l-1.49-0.94L130.31,484.17z"/>
	<path class="st0" d="M119.03,479.1c-0.59,0.82-1.07,1.5-1.49,2.19l-1.26-0.92l0.86-1.32l-0.05-0.04c-0.99,0.43-2.24,0.6-3.54-0.36
		c-1.08-0.79-1.42-2.03-1.08-3.21l-0.03-0.02c-0.57,0.26-1.13,0.38-1.63,0.39c-0.74,0.01-1.4-0.17-2.15-0.72
		c-1.04-0.76-2.1-2.58-0.1-5.32l3.39-4.65l1.4,1.02l-3.26,4.47c-1.11,1.52-1.22,2.84-0.06,3.68c0.82,0.59,1.89,0.46,2.65-0.07
		c0.21-0.15,0.45-0.37,0.64-0.64l3.56-4.88l1.4,1.02l-3.45,4.73c-0.92,1.26-1.03,2.58,0.07,3.37c0.9,0.66,2.08,0.41,2.83-0.14
		c0.24-0.15,0.45-0.37,0.63-0.62l3.48-4.77l1.4,1.02L119.03,479.1z"/>
	<path class="st0" d="M106.22,466.3c1.48-1.89,0.92-3.63-0.46-4.75c-0.99-0.8-1.72-1.11-2.42-1.32l0.57-1.18
		c0.66,0.18,1.7,0.6,2.91,1.58c2.33,1.9,2.48,4.57,0.62,6.86s-4.67,2.99-6.88,1.2c-2.48-2.01-1.36-4.73-0.23-6.12
		c0.23-0.28,0.44-0.48,0.57-0.6L106.22,466.3z M101.37,464c-0.73,0.86-1.46,2.53,0.09,3.79c1.39,1.13,3.05,0.35,3.94-0.52
		L101.37,464z"/>
	<path class="st0" d="M93.56,449.85c0.51,0.13,1.49,0.58,2.46,1.47c2.18,1.98,2.26,4.75,0.25,6.96c-2.02,2.23-5.01,2.46-7.37,0.32
		c-0.78-0.71-1.29-1.52-1.49-2.03l1.22-0.75c0.15,0.46,0.5,1.08,1.21,1.73c1.66,1.51,3.67,1.09,5.04-0.42
		c1.52-1.67,1.38-3.68-0.06-4.99c-0.75-0.68-1.42-0.93-1.94-1.11L93.56,449.85z"/>
	<path class="st0" d="M82.45,458.55l-1.28-1.23l9.92-10.36l1.28,1.23L82.45,458.55z"/>
	<path class="st0" d="M78.76,452.4c0.41-0.44,1.07-0.47,1.57,0.02c0.44,0.44,0.42,1.1-0.01,1.53c-0.44,0.44-1.11,0.46-1.57,0
		C78.28,453.48,78.32,452.84,78.76,452.4z M88.99,444.91l-6.89,6.93l-1.26-1.25l6.89-6.93L88.99,444.91z"/>
	<path class="st0" d="M80.64,436.85c0.5,0.17,1.44,0.69,2.35,1.64c2.04,2.13,1.91,4.9-0.25,6.97c-2.18,2.08-5.18,2.09-7.38-0.22
		c-0.73-0.76-1.18-1.61-1.34-2.13l1.27-0.66c0.12,0.47,0.42,1.11,1.09,1.81c1.55,1.62,3.58,1.36,5.06-0.05
		c1.64-1.56,1.64-3.58,0.3-4.98c-0.7-0.73-1.35-1.03-1.86-1.24L80.64,436.85z"/>
	<path class="st0" d="M74.47,437.36l-0.03-0.03c-0.42,0.05-0.96,0.07-1.41,0.09l-4.43,0.09l-1.42-1.6l5.51,0.16l1.45-7.04l1.44,1.62
		l-1.26,5.63l1.36,0.01l2.75-2.44l1.17,1.31l-10.72,9.52l-1.17-1.31L74.47,437.36z"/>
	<path class="st0" d="M65.06,429.32c-0.8,0.62-1.44,1.14-2.05,1.68l-0.95-1.23l1.2-1.03l-0.04-0.05c-1.07,0.14-2.31-0.05-3.3-1.33
		c-0.81-1.06-0.79-2.35-0.14-3.39l-0.03-0.03c-0.62,0.09-1.19,0.05-1.67-0.08c-0.71-0.19-1.3-0.56-1.86-1.29
		c-0.79-1.02-1.29-3.06,1.4-5.13l4.56-3.52l1.06,1.38l-4.38,3.38c-1.49,1.15-1.96,2.38-1.09,3.52c0.62,0.8,1.69,0.97,2.56,0.68
		c0.24-0.08,0.53-0.23,0.79-0.43l4.78-3.69l1.06,1.38l-4.64,3.58c-1.23,0.95-1.71,2.19-0.88,3.26c0.68,0.88,1.88,0.98,2.75,0.66
		c0.27-0.08,0.53-0.23,0.77-0.42l4.67-3.6l1.06,1.38L65.06,429.32z"/>
	<path class="st0" d="M56.32,413.46c1.95-1.4,1.9-3.23,0.88-4.69c-0.72-1.05-1.34-1.55-1.96-1.94l0.87-0.97
		c0.59,0.35,1.46,1.05,2.35,2.33c1.71,2.48,1.11,5.08-1.32,6.76c-2.43,1.68-5.33,1.57-6.95-0.77c-1.82-2.63,0.01-4.92,1.49-5.94
		c0.3-0.21,0.55-0.33,0.72-0.42L56.32,413.46z M52.31,409.89c-0.94,0.63-2.11,2.03-0.97,3.67c1.02,1.48,2.83,1.18,3.93,0.6
		L52.31,409.89z"/>
	<path class="st0" d="M48.76,394.11c0.45,0.27,1.26,0.98,1.95,2.1c1.54,2.51,0.84,5.2-1.7,6.76c-2.56,1.58-5.5,0.96-7.17-1.76
		c-0.55-0.9-0.81-1.82-0.86-2.36l1.38-0.38c0.02,0.49,0.17,1.17,0.68,2c1.17,1.91,3.22,2.08,4.96,1.01
		c1.93-1.18,2.35-3.15,1.34-4.81c-0.53-0.86-1.1-1.29-1.55-1.6L48.76,394.11z"/>
	<path class="st0" d="M35.67,399.37l-0.89-1.54l12.43-7.17l0.89,1.54L35.67,399.37z"/>
	<path class="st0" d="M33.84,392.41c0.52-0.31,1.16-0.16,1.5,0.46c0.3,0.55,0.09,1.17-0.44,1.46c-0.55,0.3-1.2,0.13-1.51-0.44
		C33.07,393.32,33.29,392.72,33.84,392.41z M45.76,388.09l-8.56,4.73l-0.86-1.56l8.56-4.73L45.76,388.09z"/>
	<path class="st0" d="M40.01,378.02c0.43,0.3,1.19,1.07,1.79,2.23c1.36,2.62,0.46,5.25-2.19,6.62c-2.67,1.38-5.56,0.56-7.03-2.28
		c-0.48-0.93-0.68-1.88-0.68-2.42l1.41-0.27c-0.02,0.49,0.09,1.18,0.54,2.04c1.03,1.99,3.06,2.31,4.87,1.37
		c2.01-1.04,2.58-2.97,1.69-4.7c-0.46-0.9-1-1.37-1.43-1.71L40.01,378.02z"/>
	<path class="st0" d="M33.93,376.76l-0.02-0.04c-0.41-0.07-0.94-0.2-1.38-0.31l-4.27-1.15l-0.91-1.94l5.25,1.7l3.37-6.35l0.92,1.95
		l-2.8,5.05l1.3,0.39l3.32-1.57l0.75,1.59l-12.97,6.12l-0.75-1.59L33.93,376.76z"/>
	<path class="st0" d="M27.15,366.41c-0.94,0.37-1.7,0.69-2.43,1.04L24.15,366l1.44-0.65l-0.02-0.06c-1.06-0.17-2.2-0.7-2.79-2.21
		c-0.49-1.24-0.1-2.48,0.82-3.29l-0.01-0.04c-0.62-0.08-1.15-0.29-1.58-0.55c-0.63-0.38-1.09-0.9-1.43-1.76
		c-0.47-1.2-0.38-3.3,2.78-4.54l5.36-2.1l0.63,1.62l-5.16,2.01c-1.75,0.68-2.55,1.74-2.03,3.07c0.37,0.94,1.35,1.4,2.27,1.37
		c0.25-0.01,0.58-0.07,0.88-0.19l5.63-2.2l0.63,1.62l-5.46,2.13c-1.45,0.57-2.25,1.62-1.76,2.88c0.4,1.03,1.53,1.46,2.46,1.4
		c0.28,0,0.58-0.07,0.86-0.18l5.49-2.15l0.63,1.62L27.15,366.41z"/>
	<path class="st0" d="M23.24,348.72c2.27-0.79,2.73-2.56,2.17-4.25c-0.4-1.21-0.85-1.87-1.33-2.41l1.11-0.69
		c0.46,0.51,1.11,1.42,1.59,2.9c0.94,2.86-0.37,5.19-3.17,6.11c-2.8,0.92-5.55,0-6.44-2.7c-1-3.03,1.4-4.72,3.11-5.28
		c0.34-0.11,0.63-0.16,0.8-0.2L23.24,348.72z M20.39,344.17c-1.08,0.33-2.6,1.35-1.97,3.25c0.56,1.71,2.38,1.94,3.6,1.68
		L20.39,344.17z"/>
	<path class="st0" d="M21.45,328.04c0.36,0.39,0.94,1.3,1.28,2.56c0.77,2.85-0.66,5.22-3.54,6c-2.91,0.79-5.55-0.63-6.38-3.71
		c-0.27-1.01-0.26-1.98-0.16-2.51l1.43,0.03c-0.12,0.47-0.16,1.17,0.09,2.11c0.59,2.16,2.5,2.9,4.47,2.37
		c2.18-0.59,3.15-2.36,2.64-4.23c-0.26-0.98-0.69-1.55-1.04-1.98L21.45,328.04z"/>
	<path class="st0" d="M7.4,329.39l-0.42-1.73l13.94-3.37l0.42,1.73L7.4,329.39z"/>
	<path class="st0" d="M7.61,322.22c0.59-0.15,1.16,0.18,1.31,0.87c0.14,0.61-0.24,1.15-0.83,1.28c-0.61,0.14-1.19-0.21-1.33-0.84
		C6.62,322.88,7,322.36,7.61,322.22z M20.27,321.44l-9.54,2.12l-0.39-1.74l9.54-2.12L20.27,321.44z"/>
	<path class="st0" d="M17.58,310.13c0.33,0.41,0.84,1.36,1.09,2.65c0.56,2.9-1.04,5.16-3.97,5.73c-2.96,0.57-5.49-1.04-6.1-4.17
		c-0.2-1.03-0.12-1.99,0.03-2.52l1.43,0.14c-0.16,0.46-0.25,1.16-0.06,2.11c0.43,2.2,2.28,3.08,4.29,2.69
		c2.22-0.43,3.31-2.12,2.94-4.03c-0.19-0.99-0.58-1.6-0.89-2.05L17.58,310.13z"/>
	<path class="st0" d="M12.12,307.22l-0.01-0.04c-0.38-0.19-0.85-0.46-1.23-0.69l-3.78-2.31l-0.33-2.12l4.55,3.11l5.03-5.14
		l0.33,2.14l-4.11,4.06l1.14,0.74l3.63-0.57l0.27,1.74l-14.17,2.21l-0.27-1.74L12.12,307.22z"/>
	<path class="st0" d="M8.54,295.36c-1.01,0.09-1.83,0.18-2.63,0.31l-0.13-1.55l1.56-0.22l0-0.06c-0.97-0.46-1.92-1.29-2.06-2.9
		c-0.11-1.33,0.6-2.4,1.71-2.93l0-0.04c-0.57-0.25-1.03-0.6-1.36-0.98c-0.49-0.55-0.79-1.17-0.87-2.09
		c-0.11-1.29,0.57-3.27,3.95-3.57l5.74-0.5l0.15,1.73l-5.51,0.48c-1.87,0.16-2.94,0.94-2.82,2.37c0.09,1.01,0.9,1.73,1.79,1.95
		c0.25,0.06,0.58,0.09,0.9,0.06l6.02-0.52l0.15,1.73l-5.84,0.5c-1.55,0.13-2.62,0.92-2.5,2.26c0.1,1.11,1.05,1.83,1.96,2.04
		c0.27,0.08,0.58,0.09,0.88,0.07l5.88-0.51l0.15,1.73L8.54,295.36z"/>
	<path class="st0" d="M9.77,277.31c2.4-0.12,3.34-1.69,3.28-3.47c-0.04-1.27-0.29-2.03-0.6-2.69l1.26-0.35
		c0.3,0.62,0.66,1.68,0.72,3.23c0.1,3.01-1.82,4.87-4.76,4.97s-5.33-1.56-5.42-4.4c-0.11-3.19,2.67-4.13,4.47-4.19
		c0.36-0.01,0.65,0.02,0.83,0.03L9.77,277.31z M8.32,272.15c-1.13,0.02-2.87,0.56-2.8,2.56c0.06,1.8,1.74,2.53,2.98,2.63
		L8.32,272.15z"/>
	<path class="st0" d="M13.85,256.94c0.23,0.47,0.54,1.51,0.51,2.82c-0.06,2.95-2.09,4.83-5.08,4.77c-3.01-0.06-5.15-2.16-5.09-5.35
		c0.02-1.05,0.3-1.97,0.55-2.46l1.37,0.43c-0.25,0.42-0.49,1.08-0.5,2.05c-0.04,2.24,1.59,3.49,3.63,3.52
		c2.26,0.04,3.68-1.39,3.72-3.32c0.02-1.01-0.23-1.68-0.44-2.19L13.85,256.94z"/>
	<path class="st0" d="M0,254.3l0.08-1.78l14.32,0.66l-0.08,1.77L0,254.3z"/>
	<path class="st0" d="M2.19,247.49c0.61,0.02,1.06,0.49,1.02,1.2c-0.04,0.63-0.55,1.04-1.16,1c-0.63-0.04-1.08-0.54-1.04-1.18
		C1.06,247.84,1.57,247.45,2.19,247.49z M14.56,250.27l-9.76-0.63l0.11-1.77l9.76,0.63L14.56,250.27z"/>
	<path class="st0" d="M15.14,238.67c0.2,0.48,0.43,1.54,0.31,2.85c-0.27,2.94-2.43,4.67-5.41,4.39c-3-0.27-4.98-2.52-4.69-5.7
		c0.1-1.05,0.44-1.95,0.73-2.41l1.33,0.53c-0.28,0.4-0.56,1.04-0.65,2.01c-0.2,2.23,1.34,3.59,3.37,3.77
		c2.25,0.21,3.77-1.12,3.95-3.05c0.09-1.01-0.11-1.69-0.28-2.22L15.14,238.67z"/>
	<path class="st0" d="M10.71,234.32l0-0.04c-0.31-0.28-0.69-0.68-0.99-1l-2.98-3.27l0.27-2.12l3.51,4.26l6.26-3.54l-0.27,2.14
		l-5.08,2.75l0.89,1.03l3.65,0.47l-0.22,1.74l-14.22-1.82l0.22-1.74L10.71,234.32z"/>
	<path class="st0" d="M10.57,221.95c-0.99-0.2-1.81-0.34-2.61-0.44l0.3-1.52l1.56,0.23l0.01-0.06c-0.8-0.72-1.48-1.78-1.17-3.36
		c0.26-1.31,1.25-2.14,2.46-2.33l0.01-0.04c-0.48-0.4-0.82-0.86-1.04-1.32c-0.32-0.66-0.43-1.34-0.25-2.25
		c0.25-1.27,1.46-2.98,4.79-2.32l5.64,1.12l-0.34,1.7l-5.43-1.08c-1.84-0.37-3.08,0.09-3.36,1.49c-0.2,0.99,0.38,1.91,1.17,2.38
		c0.22,0.13,0.53,0.25,0.84,0.31l5.92,1.18l-0.34,1.7l-5.74-1.14c-1.52-0.3-2.77,0.15-3.03,1.48c-0.22,1.09,0.5,2.05,1.31,2.51
		c0.24,0.15,0.53,0.25,0.82,0.31l5.78,1.15l-0.34,1.7L10.57,221.95z"/>
	<path class="st0" d="M16.78,204.96c2.34,0.55,3.68-0.69,4.11-2.41c0.31-1.23,0.29-2.03,0.18-2.75l1.31,0.02
		c0.12,0.68,0.17,1.79-0.21,3.3c-0.74,2.92-3.1,4.17-5.96,3.45c-2.86-0.73-4.68-2.98-3.98-5.74c0.79-3.09,3.72-3.22,5.46-2.78
		c0.35,0.09,0.62,0.2,0.79,0.26L16.78,204.96z M16.83,199.6c-1.09-0.3-2.91-0.26-3.41,1.68c-0.44,1.74,0.97,2.91,2.13,3.35
		L16.83,199.6z"/>
	<path class="st0" d="M26.41,186.55c0.09,0.52,0.09,1.6-0.3,2.85c-0.88,2.81-3.36,4.05-6.22,3.15c-2.87-0.9-4.34-3.52-3.38-6.56
		c0.31-1,0.84-1.81,1.22-2.2l1.19,0.8c-0.36,0.33-0.77,0.9-1.06,1.83c-0.67,2.14,0.55,3.79,2.49,4.4c2.16,0.68,3.92-0.29,4.5-2.14
		c0.3-0.96,0.25-1.68,0.19-2.23L26.41,186.55z"/>
	<path class="st0" d="M13.85,180.12l0.58-1.68L28,183.11l-0.58,1.68L13.85,180.12z"/>
	<path class="st0" d="M17.89,174.18c0.58,0.19,0.88,0.77,0.64,1.44c-0.21,0.59-0.82,0.84-1.39,0.63c-0.59-0.21-0.88-0.82-0.66-1.42
		C16.7,174.2,17.3,173.97,17.89,174.18z M28.98,180.34l-9.19-3.35l0.61-1.67l9.19,3.35L28.98,180.34z"/>
	<path class="st0" d="M32.8,169.4c0.05,0.52-0.03,1.6-0.51,2.82c-1.09,2.74-3.65,3.79-6.43,2.69c-2.8-1.11-4.07-3.83-2.89-6.8
		c0.39-0.98,0.97-1.74,1.38-2.11l1.13,0.88c-0.38,0.31-0.83,0.84-1.19,1.74c-0.83,2.08,0.27,3.82,2.16,4.57
		c2.1,0.83,3.94,0,4.65-1.81c0.37-0.94,0.37-1.66,0.35-2.21L32.8,169.4z"/>
	<path class="st0" d="M29.76,163.98l0.02-0.04c-0.22-0.36-0.47-0.85-0.67-1.24l-1.94-3.98l0.86-1.96l2.16,5.07l7-1.63l-0.87,1.98
		l-5.65,1.21l0.56,1.24l3.37,1.48l-0.71,1.61l-13.13-5.76l0.71-1.61L29.76,163.98z"/>
	<path class="st0" d="M33.13,152.06c-0.9-0.47-1.64-0.83-2.38-1.16l0.72-1.38l1.43,0.66l0.03-0.05c-0.57-0.91-0.92-2.12-0.17-3.55
		c0.62-1.18,1.8-1.7,3.02-1.54L35.8,145c-0.34-0.52-0.54-1.06-0.62-1.56c-0.12-0.73-0.04-1.41,0.39-2.23
		c0.6-1.15,2.24-2.45,5.25-0.88l5.1,2.67l-0.81,1.54l-4.9-2.57c-1.67-0.87-2.99-0.79-3.65,0.48c-0.47,0.89-0.17,1.94,0.46,2.61
		c0.18,0.18,0.44,0.39,0.72,0.54l5.35,2.8l-0.81,1.54l-5.19-2.72c-1.38-0.72-2.7-0.64-3.33,0.56c-0.51,0.98-0.1,2.11,0.55,2.78
		c0.19,0.21,0.44,0.39,0.7,0.53l5.23,2.74l-0.81,1.54L33.13,152.06z"/>
	<path class="st0" d="M43.9,137.5c2.09,1.19,3.72,0.38,4.63-1.15c0.65-1.1,0.85-1.87,0.95-2.59l1.25,0.39
		c-0.08,0.68-0.34,1.77-1.14,3.11c-1.54,2.59-4.15,3.13-6.69,1.62c-2.54-1.5-3.65-4.18-2.2-6.63c1.63-2.75,4.48-2.04,6.02-1.13
		c0.31,0.19,0.54,0.36,0.68,0.47L43.9,137.5z M45.46,132.37c-0.96-0.59-2.72-1.07-3.74,0.65c-0.92,1.55,0.11,3.07,1.09,3.82
		L45.46,132.37z"/>
	<path class="st0" d="M58.32,122.58c-0.06,0.52-0.36,1.56-1.09,2.65c-1.64,2.45-4.37,2.93-6.85,1.27c-2.5-1.67-3.17-4.6-1.39-7.25
		c0.58-0.87,1.32-1.5,1.79-1.77l0.92,1.1c-0.44,0.22-0.99,0.65-1.53,1.45c-1.25,1.86-0.54,3.79,1.15,4.93
		c1.88,1.26,3.85,0.82,4.92-0.79c0.56-0.84,0.71-1.54,0.81-2.08L58.32,122.58z"/>
	<path class="st0" d="M48.09,112.87l1.03-1.45l11.7,8.3l-1.03,1.45L48.09,112.87z"/>
	<path class="st0" d="M53.62,108.32c0.5,0.34,0.63,0.99,0.21,1.56c-0.37,0.5-1.03,0.57-1.51,0.21c-0.5-0.37-0.62-1.03-0.24-1.55
		C52.47,108,53.11,107.94,53.62,108.32z M62.53,117.35l-7.87-5.8l1.06-1.43l7.87,5.81L62.53,117.35z"/>
	<path class="st0" d="M69.29,107.9c-0.09,0.52-0.47,1.53-1.28,2.56c-1.81,2.33-4.57,2.61-6.93,0.77c-2.37-1.85-2.83-4.82-0.86-7.33
		c0.65-0.83,1.42-1.4,1.91-1.63l0.83,1.16c-0.45,0.19-1.04,0.57-1.63,1.34c-1.38,1.77-0.82,3.74,0.79,5
		c1.78,1.39,3.78,1.1,4.97-0.43c0.62-0.8,0.82-1.48,0.96-2.02L69.29,107.9z"/>
	<path class="st0" d="M67.89,101.86l0.03-0.03c-0.11-0.41-0.21-0.94-0.29-1.38l-0.74-4.37l1.38-1.64l0.65,5.48l7.18,0.41l-1.39,1.66
		l-5.76-0.43l0.19,1.35l2.82,2.36l-1.13,1.35l-10.99-9.22l1.13-1.35L67.89,101.86z"/>
	<path class="st0" d="M74.46,91.37c-0.73-0.7-1.34-1.26-1.96-1.78l1.08-1.12l1.19,1.03l0.04-0.04c-0.29-1.04-0.29-2.29,0.83-3.46
		c0.92-0.96,2.21-1.13,3.33-0.64l0.03-0.03c-0.18-0.6-0.22-1.17-0.16-1.67c0.09-0.73,0.36-1.36,1-2.03c0.9-0.93,2.84-1.73,5.28,0.63
		l4.15,3.99l-1.21,1.25l-3.99-3.84c-1.35-1.3-2.65-1.59-3.64-0.56c-0.7,0.73-0.71,1.81-0.29,2.63c0.12,0.23,0.31,0.49,0.54,0.72
		l4.35,4.19l-1.21,1.25l-4.22-4.06c-1.12-1.08-2.41-1.37-3.35-0.39c-0.77,0.8-0.69,2-0.25,2.82c0.12,0.25,0.31,0.49,0.53,0.7
		l4.25,4.09l-1.21,1.25L74.46,91.37z"/>
	<path class="st0" d="M88.88,80.41c1.67,1.73,3.47,1.4,4.77,0.19c0.93-0.87,1.34-1.56,1.63-2.22l1.09,0.72
		c-0.26,0.63-0.83,1.6-1.96,2.66c-2.2,2.06-4.86,1.84-6.88-0.32s-2.33-5.04-0.25-6.98c2.33-2.18,4.87-0.71,6.1,0.61
		c0.25,0.27,0.41,0.5,0.52,0.65L88.88,80.41z M91.82,75.92c-0.76-0.84-2.31-1.79-3.77-0.43c-1.31,1.23-0.76,2.98-0.02,3.97
		L91.82,75.92z"/>
	<path class="st0" d="M106.9,70.1c-0.2,0.48-0.78,1.39-1.79,2.24c-2.26,1.9-5.01,1.6-6.94-0.69c-1.94-2.31-1.76-5.3,0.69-7.35
		c0.8-0.67,1.68-1.07,2.21-1.2l0.57,1.31c-0.48,0.09-1.13,0.35-1.88,0.97c-1.72,1.44-1.58,3.49-0.27,5.05
		c1.45,1.73,3.46,1.87,4.95,0.62c0.77-0.65,1.12-1.28,1.36-1.77L106.9,70.1z"/>
	<path class="st0" d="M99.78,57.93l1.39-1.1l8.92,11.23l-1.39,1.11L99.78,57.93z"/>
	<path class="st0" d="M106.37,55.1c0.38,0.47,0.33,1.12-0.24,1.55c-0.5,0.38-1.15,0.27-1.51-0.22c-0.38-0.5-0.31-1.17,0.21-1.56
		C105.36,54.47,105.99,54.6,106.37,55.1z M112.41,66.25l-5.94-7.77l1.41-1.08l5.94,7.77L112.41,66.25z"/>
	<path class="st0" d="M121.52,59.08c-0.23,0.47-0.88,1.33-1.94,2.1c-2.39,1.73-5.12,1.23-6.87-1.19c-1.76-2.44-1.37-5.41,1.22-7.28
		c0.85-0.61,1.76-0.95,2.29-1.03l0.48,1.35c-0.49,0.05-1.16,0.26-1.94,0.83c-1.82,1.31-1.83,3.36-0.64,5.02
		c1.32,1.83,3.32,2.11,4.89,0.98c0.82-0.59,1.21-1.19,1.48-1.67L121.52,59.08z"/>
	<path class="st0" d="M121.88,52.88l0.03-0.02c0.01-0.42,0.06-0.96,0.1-1.41l0.51-4.4l1.78-1.19l-0.91,5.44l6.78,2.4l-1.8,1.2
		l-5.41-2.02l-0.2,1.35l2.04,3.06l-1.46,0.98l-7.97-11.93l1.46-0.98L121.88,52.88z"/>
	<path class="st0" d="M131.12,44.65c-0.5-0.88-0.93-1.58-1.39-2.25l1.35-0.77l0.85,1.33l0.05-0.03c0.01-1.08,0.37-2.28,1.77-3.09
		c1.16-0.66,2.43-0.47,3.38,0.32l0.04-0.02c-0.01-0.62,0.11-1.18,0.31-1.65c0.29-0.68,0.73-1.21,1.53-1.67
		c1.12-0.64,3.21-0.86,4.9,2.08l2.87,4.99l-1.51,0.86l-2.76-4.8c-0.93-1.63-2.09-2.27-3.34-1.55c-0.88,0.5-1.19,1.54-1.02,2.45
		c0.05,0.25,0.16,0.56,0.32,0.84l3.01,5.24l-1.51,0.86l-2.92-5.08c-0.77-1.35-1.93-1.99-3.11-1.31c-0.96,0.55-1.22,1.73-1.02,2.64
		c0.04,0.28,0.16,0.56,0.31,0.82l2.94,5.12l-1.51,0.86L131.12,44.65z"/>
	<path class="st0" d="M148.02,38.17c1.12,2.13,2.94,2.32,4.52,1.52c1.14-0.57,1.72-1.12,2.19-1.67l0.84,1
		c-0.43,0.54-1.24,1.31-2.63,2.01c-2.69,1.36-5.19,0.4-6.52-2.23s-0.83-5.49,1.72-6.78c2.85-1.44,4.87,0.69,5.68,2.29
		c0.16,0.32,0.26,0.6,0.32,0.77L148.02,38.17z M152.1,34.68c-0.49-1.02-1.72-2.37-3.5-1.47c-1.61,0.81-1.56,2.65-1.13,3.81
		L152.1,34.68z"/>
	<path class="st0" d="M168.22,33.32c-0.33,0.41-1.14,1.12-2.34,1.65c-2.7,1.19-5.26,0.13-6.46-2.61c-1.21-2.76-0.2-5.58,2.72-6.86
		c0.96-0.42,1.92-0.55,2.46-0.53l0.18,1.42c-0.49-0.05-1.19,0.01-2.07,0.4c-2.05,0.9-2.5,2.9-1.68,4.77
		c0.91,2.07,2.8,2.76,4.58,1.98c0.92-0.41,1.43-0.91,1.8-1.32L168.22,33.32z"/>
	<path class="st0" d="M164.81,19.65l1.65-0.67l5.4,13.28l-1.65,0.67L164.81,19.65z"/>
	<path class="st0" d="M171.94,18.78c0.24,0.56,0,1.17-0.67,1.42c-0.58,0.22-1.17-0.07-1.39-0.63c-0.22-0.58,0.04-1.2,0.64-1.44
		C171.15,17.89,171.72,18.19,171.94,18.78z M174.59,31.18l-3.51-9.13l1.66-0.64l3.51,9.13L174.59,31.18z"/>
	<path class="st0" d="M185.35,26.87c-0.36,0.38-1.22,1.03-2.46,1.47c-2.78,0.98-5.25-0.26-6.25-3.08c-1-2.84,0.21-5.58,3.22-6.64
		c0.99-0.35,1.95-0.41,2.49-0.34l0.08,1.43c-0.48-0.09-1.18-0.07-2.1,0.25c-2.11,0.75-2.7,2.71-2.02,4.64
		c0.75,2.13,2.59,2.96,4.42,2.32c0.95-0.34,1.49-0.81,1.9-1.18L185.35,26.87z"/>
	<path class="st0" d="M187.44,21.02l0.04-0.01c0.13-0.4,0.33-0.91,0.5-1.32l1.73-4.07l2.04-0.64l-2.4,4.96l5.82,4.21l-2.06,0.65
		l-4.62-3.46l-0.57,1.23l1.1,3.51l-1.68,0.52l-4.28-13.68l1.68-0.52L187.44,21.02z"/>
	<path class="st0" d="M198.62,15.73c-0.23-0.98-0.45-1.78-0.69-2.56l1.51-0.36l0.45,1.51l0.06-0.01c0.31-1.03,1-2.09,2.57-2.46
		c1.3-0.31,2.47,0.24,3.15,1.26l0.04-0.01c0.17-0.6,0.44-1.1,0.77-1.49c0.47-0.57,1.04-0.95,1.94-1.17c1.26-0.3,3.32,0.08,4.11,3.38
		l1.34,5.6l-1.69,0.4l-1.29-5.38c-0.44-1.83-1.37-2.77-2.76-2.44c-0.98,0.23-1.58,1.15-1.67,2.06c-0.02,0.25-0.01,0.58,0.07,0.9
		l1.41,5.88l-1.69,0.4l-1.36-5.7c-0.36-1.51-1.29-2.45-2.61-2.14c-1.08,0.26-1.66,1.31-1.73,2.24c-0.04,0.28-0.01,0.58,0.06,0.88
		l1.37,5.74l-1.69,0.4L198.62,15.73z"/>
	<path class="st0" d="M216.68,14.28c0.47,2.36,2.16,3.05,3.91,2.73c1.25-0.23,1.97-0.59,2.57-0.99l0.53,1.2
		c-0.57,0.39-1.56,0.9-3.09,1.18c-2.96,0.54-5.09-1.08-5.62-3.98c-0.53-2.9,0.76-5.5,3.56-6.01c3.14-0.58,4.48,2.03,4.8,3.8
		c0.07,0.36,0.08,0.64,0.09,0.83L216.68,14.28z M221.58,12.09c-0.18-1.12-0.98-2.76-2.95-2.4c-1.77,0.32-2.24,2.1-2.16,3.33
		L221.58,12.09z"/>
	<path class="st0" d="M237.41,15.35c-0.43,0.3-1.41,0.75-2.71,0.92c-2.92,0.37-5.08-1.37-5.46-4.33c-0.38-2.98,1.39-5.41,4.55-5.81
		c1.04-0.13,2,0.01,2.51,0.19l-0.23,1.41c-0.45-0.19-1.14-0.32-2.1-0.2c-2.22,0.28-3.22,2.08-2.96,4.1c0.29,2.24,1.9,3.44,3.83,3.2
		c1-0.13,1.63-0.47,2.1-0.76L237.41,15.35z"/>
	<path class="st0" d="M238,1.26l1.77-0.18l1.43,14.27l-1.77,0.18L238,1.26z"/>
	<path class="st0" d="M245.08,2.45c0.07,0.6-0.33,1.12-1.04,1.18c-0.62,0.05-1.11-0.4-1.16-1c-0.05-0.62,0.37-1.14,1.02-1.2
		C244.57,1.38,245.03,1.82,245.08,2.45z M244.12,15.09l-0.79-9.74l1.77-0.14l0.79,9.74L244.12,15.09z"/>
	<path class="st0" d="M255.68,13.98c-0.45,0.27-1.46,0.65-2.77,0.72c-2.94,0.16-4.97-1.73-5.13-4.72c-0.16-3.01,1.78-5.3,4.96-5.47
		c1.05-0.06,1.99,0.15,2.49,0.37l-0.33,1.39c-0.44-0.22-1.11-0.4-2.08-0.35c-2.24,0.12-3.36,1.84-3.25,3.88
		c0.12,2.26,1.65,3.57,3.59,3.47c1.01-0.05,1.66-0.35,2.15-0.6L255.68,13.98z"/>
	<path class="st0" d="M259.31,8.95l0.04,0c0.24-0.35,0.57-0.78,0.85-1.13l2.81-3.43l2.14-0.04l-3.7,4.09l4.41,5.68l-2.16,0.04
		l-3.46-4.62l-0.89,1.03l0.07,3.68l-1.76,0.03l-0.27-14.34l1.76-0.03L259.31,8.95z"/>
	<path class="st0" d="M271.54,7.02c0.05-1.01,0.07-1.84,0.05-2.65l1.55,0.08l0,1.58l0.06,0c0.59-0.9,1.54-1.73,3.15-1.65
		c1.33,0.06,2.3,0.92,2.67,2.09l0.04,0c0.33-0.53,0.73-0.94,1.15-1.22c0.61-0.42,1.26-0.63,2.19-0.58c1.29,0.06,3.17,1,3,4.39
		l-0.28,5.75l-1.73-0.08l0.27-5.53c0.09-1.88-0.54-3.04-1.97-3.11c-1.01-0.05-1.83,0.66-2.18,1.51c-0.09,0.24-0.17,0.56-0.18,0.88
		l-0.29,6.03l-1.73-0.08l0.28-5.85c0.08-1.55-0.56-2.72-1.91-2.78c-1.11-0.05-1.96,0.79-2.28,1.67c-0.11,0.26-0.17,0.56-0.18,0.86
		l-0.29,5.89l-1.73-0.08L271.54,7.02z"/>
	<path class="st0" d="M289.27,10.66c-0.2,2.4,1.23,3.53,3,3.71c1.27,0.13,2.05-0.02,2.74-0.23l0.17,1.3
		c-0.65,0.22-1.75,0.43-3.3,0.28c-2.99-0.3-4.58-2.45-4.29-5.39c0.3-2.93,2.26-5.07,5.09-4.78c3.17,0.32,3.74,3.2,3.56,4.99
		c-0.04,0.36-0.11,0.64-0.14,0.82L289.27,10.66z M294.58,9.92c0.13-1.12-0.17-2.92-2.16-3.12c-1.79-0.18-2.74,1.39-3,2.6
		L294.58,9.92z"/>
</g>
</svg>
