<?xml version="1.0" encoding="utf-8"?>
<!-- Generator: Adobe Illustrator 24.1.2, SVG Export Plug-In . SVG Version: 6.00 Build 0)  -->
<svg version="1.1" id="Layer_1" xmlns="http://www.w3.org/2000/svg" xmlns:xlink="http://www.w3.org/1999/xlink" x="0px" y="0px"
	 viewBox="0 0 386.59 457.12" style="enable-background:new 0 0 386.59 457.12;" xml:space="preserve">
<style type="text/css">
	.st0{fill:#00B9BC;}
	.st1{opacity:0.5;fill:#ED5340;}
	.st2{fill:#5B3C3C;}
	.st3{fill:#4E3333;}
	.st4{fill:#492A2A;}
	.st5{fill:#FFD6B5;}
	.st6{opacity:0.5;fill:#FFEEA0;}
	.st7{fill:#FFEED7;}
	.st8{fill:#FFCC99;}
	.st9{fill:#FFAE82;}
	.st10{fill:#F0E8C0;}
	.st11{fill:#FFD522;}
	.st12{fill:#FF8E6E;}
	.st13{fill:#C2A017;}
	.st14{fill:#431C1C;}
	.st15{fill:#CF5232;}
	.st16{fill:#8CDDEA;}
	.st17{fill:#6BA7B0;}
	.st18{fill:#714D4D;}
	.st19{fill:#694343;}
	.st20{fill:#5B3838;}
	.st21{opacity:0.6;fill:#FFF8EA;}
	.st22{fill:#282E30;}
	.st23{fill:#1C2121;}
	.st24{fill:#5E2B26;}
	.st25{fill:#FFF8E1;}
	.st26{fill:#A4542C;}
	.st27{fill:#59221D;}
	.st28{fill:#FFD465;}
	.st29{fill:#FFA14F;}
	.st30{fill:#004C57;}
	.st31{fill:#003C41;}
	.st32{fill:#005159;}
	.st33{fill:#6EB8E8;}
	.st34{fill:#59B1DE;}
	.st35{fill:#42A1D2;}
	.st36{fill:#F8D1A0;}
	.st37{fill:#933830;}
	.st38{fill:#FFA34B;}
	.st39{fill:#3E3E3E;}
	.st40{fill:#2C2C2C;}
	.st41{fill:#300B0A;}
	.st42{fill:#FFF3DF;}
</style>
<g>
	<path class="st0" d="M243.51,72.29l-2.61,55.55c6.53,5.35,15.13,10.53,21.06,24.94c5.93,14.41,25.54,5.68,27.93-5.01
		c2.21-9.88-4.34-24.44-11.57-36.66C265.54,89.52,248.67,73.92,243.51,72.29z"/>
	<path class="st1" d="M264.1,123.86c-5.6-13.61-12.87-28.66-19.26-34.33l-5.32,41.96c6.53,5.34,16.11,6.51,22.04,20.92
		c4.05,9.85,12.46,11.89,20.14,6.62C306.39,142.08,267.45,131.98,264.1,123.86z"/>
	<path class="st2" d="M261.52,331.91l-19.41-127.9l-82.34,3.43l9.52,124.47c0.87,9.93,17.2,123.29,17.2,123.29h3.04l8.64-123.29
		l5.67-64.77h6.08l20.68,64.77l24.3,123.29h2.54C257.45,432.03,261.52,331.91,261.52,331.91z"/>
	<g>
		<path class="st3" d="M169.34,332.4c1.28,12.62,17.16,122.8,17.16,122.8h3.04l8.44-120.41
			C188.15,334.38,178.58,333.57,169.34,332.4z"/>
		<path class="st3" d="M231.15,334.64l23.76,120.56h2.54c0.01-23.17,4.08-123.29,4.08-123.29l-0.03-0.18
			C251.74,333.12,241.59,334.1,231.15,334.64z"/>
	</g>
	<g>
		<path class="st4" d="M176.84,335.03l-4.2-101.26l71.9-13.81l-1.02-17.13l-85.13,4.83l10.91,124.25
			c0.87,9.93,17.2,123.29,17.2,123.29h3.04l0.06-0.88C187.26,433.28,177.32,343.81,176.84,335.03z"/>
		<path class="st4" d="M238.13,336.77l-23.63-71.64l-4.61,0.59l-3.14,1.03l23.86,65.16l24.3,123.29h2.54c0-0.25,0-0.51,0-0.77
			L238.13,336.77z"/>
	</g>
	<polygon class="st4" points="189.36,263.28 203.61,267.93 212.35,268.46 223.37,259.7 212.54,265.42 205.13,265.6 	"/>
	<path class="st0" d="M155.91,230.67l90.45-17.88c0,0,0.68-58.84-1.6-71.72c0,0,8.74-61.16,0.38-67.95
		c-8.36-6.8-68.79-4.65-81.71,13.59C150.52,104.95,150.21,192.76,155.91,230.67z"/>
	<polygon class="st5" points="203.61,97.33 187.27,78.2 214.44,72.65 	"/>
	<path class="st0" d="M248.66,87.4c-6.15,13.67-11.11,39.57-14.45,44.8c-4.56,7.15-52.45,7.51-62.33,7.51
		c-7.81,0-8.5-30.6-13.7-39.37c-7.6,31.46-7.05,98.5-2.26,130.34l6.43-1.27c-0.47-3.9-0.73-7.93-0.73-12.08
		c0-35.16,17.87-70.7,39.91-71.89c22.04-1.18,39.9,32.44,39.9,67.59c0,0.25-0.01,0.49-0.01,0.74l4.95-0.98c0,0,0.68-58.84-1.6-71.72
		C244.77,141.07,249.56,107.57,248.66,87.4z"/>
	<path class="st6" d="M246.46,196.23l-92.42,17.77c0.25,3.03,0.53,5.92,0.83,8.65c19.39-3.35,71.89-11.26,91.53-14.2
		C246.43,205.48,246.45,201.22,246.46,196.23z"/>
	<path class="st6" d="M246.29,170.28l-93.75,14.22c0.07,2.98,0.16,5.93,0.27,8.83c24.43-3.1,77.02-8.98,93.62-10.83
		C246.4,178.47,246.36,174.33,246.29,170.28z"/>
	<path class="st0" d="M127.5,168.86c-4.64-18.12,10.08-64.09,37.37-84c6.82-4.98,10.56,9.44,1.44,41.63
		c-5.51,19.46-9.89,31.98-9.75,36.1C156.7,166.69,130.38,180.12,127.5,168.86z"/>
	<path class="st1" d="M146.62,158.4c-0.14,2.32-11,7.34-19.56,8.28c0.12,0.76,0.26,1.49,0.43,2.17c2.88,11.26,29.21-2.16,29.06-6.28
		c-0.15-4.11,4.24-16.64,9.75-36.1c0.84-2.95,1.56-5.75,2.19-8.4C158.58,133.61,146.64,158.08,146.62,158.4z"/>
	<path class="st7" d="M117.23,168.84c0,0,17.82,24.32,38.19,7.62l0.69-20.45c0,0-16.08-18.3-35.71,0.89l4,5.8L117.23,168.84z"/>
	<path class="st5" d="M150.57,151.58c-1.46,7-9.05,12.34-18.22,12.34c-2.94,0-5.71-0.56-8.18-1.54l0.22,0.32l-7.17,6.14
		c0,0,17.82,24.32,38.19,7.62l0.69-20.45C156.11,156,154.07,153.7,150.57,151.58z"/>
	<path class="st8" d="M128.73,164.22c-1.64,7.83,13.61,18.35,21.78,13.67c8.17-4.67,30.31-35.62,44.19-51.77l-1.37-2.45
		C152.41,150.99,135.23,133.26,128.73,164.22z"/>
	<path class="st9" d="M142.42,170.55c-3.55,1.5-8.37,0.75-12.65-1.12c3.53,6.41,14.32,12.13,20.74,8.45
		c8.17-4.67,30.31-35.62,44.19-51.77l-0.45-0.8C175.06,142.43,150.47,167.14,142.42,170.55z"/>
	<path class="st8" d="M281.32,160.68c7.07-2.51,9.19-20.87,1.78-25.94c-7.4-5.08-42.53-10.12-61.87-14.84l-1.42,2.39
		C260.13,145.83,258.75,168.69,281.32,160.68z"/>
	<path class="st9" d="M287.03,140.9c-0.55,3.99-2.12,7.38-4.66,8.6c-20.5,9.84-21.51-8.99-58.94-27.68
		c-0.36-0.09-1.85-1.84-2.2-1.92l-1.42,2.39c40.31,23.54,38.93,46.39,61.51,38.38C286.55,158.83,289.06,148.31,287.03,140.9z"/>
	<path class="st10" d="M248.59,456.98h27.29c0,0-16.27-10.63-21.62-8.45C248.9,450.7,248.59,456.98,248.59,456.98z"/>
	<path class="st10" d="M191.43,456.98h-20.06c0,0,12.64-9.97,16.81-7.63C192.36,451.68,191.43,456.98,191.43,456.98z"/>
	<path class="st11" d="M212.77,139.58c1.07-0.58,1.53-2.01,1.04-3.45c-0.2-0.57-0.52-1.06-0.92-1.45c2.1-2.19,3.29-5.11,3.04-8.24
		c-0.46-5.81-5.67-10.23-11.88-10.31c0.01-0.06,0.03-0.12,0.03-0.19c-0.06-0.8-0.81-1.4-1.68-1.34c-0.86,0.06-1.51,0.76-1.44,1.56
		c0.01,0.1,0.05,0.19,0.08,0.28c-5.72,1.25-9.79,6.16-9.34,11.72c0.24,3.01,1.76,5.65,4.04,7.5c-0.3,0.92-0.08,1.8,0.5,2.12
		l-5.08,12.31l-1.51,0.67l-0.05,0.45l0.85,0.05l-0.54,1.72l-0.56-0.02l-0.32,0.6l0.26,0.24l-0.28,0.56l-1.49-0.4l-0.2,0.33
		l1.41,0.54l-0.3,0.78l-2.34,0.11l-0.11,0.36l2.49,0.57l-0.21,0.51l-1.29-0.11l-0.1,0.5l1.07,0.37l-0.15,0.36l-1.8-0.14l-0.18,0.55
		l1.6,0.51l-0.46,1.11l0.3,0.2l2.03-4.96l1.1,0.37l0.79-1.49l-1.25-0.44l6.58-16.09c0.52,0.11,1.11-0.19,1.53-0.76
		c0.23,0.11,0.45,0.22,0.69,0.32c0.14,0.72,0.49,1.31,0.96,1.63l-0.94,14.04l-2.47,1.1l0.2,2.5l0.79,0.43l-0.11,1.03l-0.6,0.08
		l0.04,1.19l-1.08-0.05l0.07,0.88l0.81,0.21l0.03,0.92l1.34,0.39c0,0-0.07,1.46-0.48,1.62l-0.23,0.68l-0.79,0.1l0.23,1.75l0.92,0.42
		l1.59-0.07l-0.07-1.5l-0.3-0.06l1.56-25.43c0.62,0.11,1.2-0.3,1.55-0.99c0.22,0.04,0.44,0.07,0.67,0.09
		c0.08,0.92,0.59,1.66,1.21,1.82l0.25,8.72l-1.05-0.12l-0.48,2.35l1.5,0.22l-0.06,0.32l-1.99-0.14l-0.68,3.77l2.96,0.41l0,0.1
		l1.14,0.11l-0.99-15.76c0.57-0.21,0.96-0.93,0.97-1.8c0.16-0.02,0.32-0.03,0.47-0.06c0.01,0.04,0,0.07,0.01,0.11
		c0.29,1.15,1.13,1.96,1.91,1.9l1.13,4.48l-1.1,1.13l0.09,1.14l-0.24,0.11l0.15,0.54l0.34,0.03l0.09,0.27l1.36-0.05l0.01,0.05
		l-0.61,0.76l0.45,2.85l1.97-0.43l-3.21-11.04c0.58-0.36,0.83-1.31,0.57-2.34c-0.02-0.1-0.08-0.17-0.11-0.26
		c0.1-0.04,0.2-0.08,0.3-0.13c0,0.01,0,0.02,0.01,0.03c0.55,1.58,2.06,2.58,3.41,2.29l3.82,9.55l1.07,3.43l-2.2,1.69l0.85,1.43
		l0.55-0.13l0.34,0.68l-0.48,0.42l0.17,0.42l0.63-0.07l0.21,0.47l-0.6,0.34l0.17,0.61l0.46-0.07l0.42,0.92l-0.36,0.14l0.76,1.39
		l2.51-1.7l0.44-0.14L212.77,139.58z M193.14,128.13c-0.43-5.41,4-10.13,9.89-10.55c5.89-0.42,11.02,3.63,11.45,9.04
		c0.22,2.79-0.86,5.4-2.76,7.33c-0.47-0.17-0.97-0.21-1.44-0.08c-0.99,0.27-1.6,1.18-1.67,2.27c-0.28,0.13-0.56,0.25-0.86,0.36
		c-0.35-0.26-0.74-0.36-1.13-0.28c-0.43,0.09-0.75,0.39-0.91,0.82c-0.29,0.05-0.58,0.08-0.88,0.11c-0.28-0.38-0.68-0.58-1.14-0.55
		c-0.41,0.02-0.76,0.22-1,0.55c-0.21-0.02-0.42-0.05-0.63-0.08c0.08-1.35-0.58-2.59-1.5-2.78c-0.85-0.18-1.62,0.58-1.86,1.73
		c-0.07-0.03-0.14-0.06-0.21-0.1c0.1-0.76-0.24-1.31-0.85-1.51c-0.39-0.13-0.79-0.07-1.15,0.15
		C194.6,132.93,193.34,130.69,193.14,128.13z"/>
	<polygon class="st4" points="201.27,225.66 204.06,256.18 210.39,254.99 206.08,253.8 205.07,224.95 	"/>
	<path class="st1" d="M184.85,121.31c22.78-4.82,35.11-37.92,39.31-51.73c-20.14-0.18-48.4,4.21-58.95,15.04
		c-0.11,0.08-0.23,0.14-0.35,0.23c-0.56,0.41-1.1,0.84-1.65,1.27C159.88,103.58,162.83,125.97,184.85,121.31z"/>
	<path class="st8" d="M216.36,72.67c4.4-3.95,9.7-12.1,7.16-17.64c-2.53-5.54-9.17,2.01-9.33,10.1
		C214.03,73.22,216.36,72.67,216.36,72.67z"/>
	<path class="st12" d="M216.21,70.83c3.38-3.02,7.46-9.26,5.54-13.49c-1.92-4.23-7.02,1.54-7.18,7.73
		C214.42,71.25,216.21,70.83,216.21,70.83z"/>
	<path class="st8" d="M215.09,71.06c2.76-2.47,6.09-7.57,4.52-11.02c-1.57-3.46-5.73,1.26-5.85,6.31
		C213.64,71.41,215.09,71.06,215.09,71.06z"/>
	<path class="st8" d="M182.06,72.4c-4.94-3.58-11.21-11.27-9.12-16.99c2.09-5.72,9.69,1.25,10.64,9.3
		C184.53,72.76,182.06,72.4,182.06,72.4z"/>
	<path class="st12" d="M182.03,70.53c-3.69-2.67-8.38-8.42-6.82-12.7c1.56-4.27,7.25,0.94,7.96,6.95
		C183.88,70.8,182.03,70.53,182.03,70.53z"/>
	<path class="st8" d="M182.55,70.53c-2.67-1.93-6.06-6.09-4.93-9.18c1.13-3.09,5.24,0.68,5.76,5.03
		C183.89,70.72,182.55,70.53,182.55,70.53z"/>
	<path class="st11" d="M204.74,11.04c0-0.98,4.91-9.83-3.55-6.39c-8.46,3.44-30.83,21.62-30.83,21.62
		c2.73,13.27,8.97,29.93,11.7,49.59l34.71-1.67c2.53-22.89,6.78-42.79,3.29-51.98C215.41,9.92,204.74,11.04,204.74,11.04z"/>
	<path class="st13" d="M201.52,27.77c-9.72,0-18.18-3.27-22.75-8.12c-4.83,3.71-8.41,6.62-8.41,6.62
		c2.73,13.27,8.97,29.93,11.7,49.59l34.71-1.67c2.47-22.36,6.56-41.83,3.5-51.29C215.5,25.91,208.86,27.77,201.52,27.77z"/>
	<path class="st8" d="M180.72,81.27c0,0,10.48,7.01,21.15,6.82c6.59-0.12,17.18-9.95,17.18-9.95s-2.39-49.38-8.6-55.45
		c-6.84-6.68-26.74-3.31-28.38,2.86C180.42,31.72,180.72,81.27,180.72,81.27z"/>
	<path class="st9" d="M200.05,61.56c-5.41-17.73-6.87-33.92-4.42-42.39c-6.55,0.58-12.69,3.08-13.57,6.39
		c-1.65,6.17-1.35,55.72-1.35,55.72s10.48,7.01,21.15,6.82c2.32-0.04,5.13-1.29,7.8-2.89C206.13,78.59,202.78,70.5,200.05,61.56z"/>
	<path class="st11" d="M179.48,30.39c3.8,11.21,29.9,14.31,35.47-0.72c5.58-15.02-20.02-17.64-24.58-15.5
		C185.81,16.33,176.14,20.55,179.48,30.39z"/>
	<path class="st13" d="M181.3,20.62c-0.05-0.13-0.07-0.25-0.11-0.37c-2.09,2.47-3.21,5.74-1.72,10.15
		c3.8,11.21,29.9,14.31,35.47-0.72c0.61-1.65,0.83-3.14,0.76-4.51C206.02,33.88,184.81,30.25,181.3,20.62z"/>
	<path class="st13" d="M213.81,136.13c-0.2-0.57-0.52-1.06-0.92-1.45c0.89-0.93,1.61-2,2.13-3.15c-0.6,0.21-1.22,0.39-1.86,0.56
		c-0.4,0.67-0.88,1.29-1.44,1.86c-0.47-0.17-0.97-0.21-1.44-0.08c-0.99,0.27-1.6,1.18-1.67,2.27c-0.28,0.13-0.56,0.25-0.86,0.36
		c-0.35-0.26-0.74-0.36-1.13-0.28c-0.43,0.09-0.75,0.39-0.91,0.82c-0.29,0.05-0.58,0.08-0.88,0.11c-0.28-0.38-0.68-0.58-1.14-0.55
		c-0.41,0.02-0.76,0.22-1,0.55c-0.21-0.02-0.42-0.05-0.63-0.08c0.08-1.35-0.58-2.59-1.5-2.78c-0.85-0.18-1.62,0.58-1.86,1.73
		c-0.07-0.03-0.14-0.06-0.21-0.1c0.1-0.76-0.24-1.31-0.85-1.51c-0.39-0.13-0.79-0.07-1.15,0.15c-1.67-1.43-2.84-3.35-3.24-5.53
		c-0.57-0.41-1.1-0.84-1.59-1.3c0.01,0.14,0,0.29,0.01,0.43c0.24,3.01,1.76,5.65,4.04,7.5c-0.3,0.92-0.08,1.8,0.5,2.12l-5.08,12.31
		l-1.51,0.67l-0.05,0.45l0.85,0.05l-0.54,1.72l-0.56-0.02l-0.32,0.6l0.26,0.24l-0.28,0.56l-1.49-0.4l-0.2,0.33l1.41,0.54l-0.3,0.78
		l-2.34,0.11l-0.11,0.36l2.49,0.57l-0.21,0.51l-1.29-0.11l-0.1,0.5l1.07,0.37l-0.15,0.36l-1.8-0.14l-0.18,0.55l1.6,0.51l-0.46,1.11
		l0.3,0.2l2.03-4.96l1.1,0.37l0.79-1.49l-1.25-0.44l6.58-16.09c0.52,0.11,1.11-0.19,1.53-0.76c0.23,0.11,0.45,0.22,0.69,0.32
		c0.14,0.72,0.49,1.31,0.96,1.63l-0.94,14.04l-2.47,1.1l0.2,2.5l0.79,0.43l-0.11,1.03l-0.6,0.08l0.04,1.19l-1.08-0.05l0.07,0.88
		l0.81,0.21l0.03,0.92l1.34,0.39c0,0-0.07,1.46-0.48,1.62l-0.23,0.68l-0.79,0.1l0.23,1.75l0.92,0.42l1.59-0.07l-0.07-1.5l-0.3-0.06
		l1.56-25.43c0.62,0.11,1.2-0.3,1.55-0.99c0.22,0.04,0.44,0.07,0.67,0.09c0.08,0.92,0.59,1.66,1.21,1.82l0.25,8.72l-1.05-0.12
		l-0.48,2.35l1.5,0.22l-0.06,0.32l-1.99-0.14l-0.68,3.77l2.96,0.41l0,0.1l1.14,0.11l-0.99-15.76c0.57-0.21,0.96-0.93,0.97-1.8
		c0.16-0.02,0.32-0.03,0.47-0.06c0.01,0.04,0,0.07,0.01,0.11c0.29,1.15,1.13,1.96,1.91,1.9l1.13,4.48l-1.1,1.13l0.09,1.14
		l-0.24,0.11l0.15,0.54l0.34,0.03l0.09,0.27l1.36-0.05l0.01,0.05l-0.61,0.76l0.45,2.85l1.97-0.43l-3.21-11.04
		c0.58-0.36,0.83-1.31,0.57-2.34c-0.02-0.1-0.08-0.17-0.11-0.26c0.1-0.04,0.2-0.08,0.3-0.13c0,0.01,0,0.02,0.01,0.03
		c0.55,1.58,2.06,2.58,3.41,2.29l3.82,9.55l1.07,3.43l-2.2,1.69l0.85,1.43l0.55-0.13l0.34,0.68l-0.48,0.42l0.17,0.42l0.63-0.07
		l0.21,0.47l-0.6,0.34l0.17,0.61l0.46-0.07l0.42,0.92l-0.36,0.14l0.76,1.39l2.51-1.7l0.44-0.14l-8.21-19.59
		C213.84,139,214.3,137.57,213.81,136.13z"/>
	<g>
		<path class="st8" d="M195.14,120.9c-3.88,1.64-6.69,5.61-10.16,8.26l0.99,3.87c4.92-2.76,11.96-4.51,12.81-5.88
			C199.05,126.66,196.43,120.35,195.14,120.9z"/>
		<path class="st8" d="M196.95,128.19c1.67-0.74,2.77-0.88,2.55-1.59c-0.36-1.12-0.23-0.87-2.47-0.36
			C193.98,126.95,196.95,128.19,196.95,128.19z"/>
		<path class="st8" d="M195.6,123c1.54-0.97,3.92-2.28,3.51-3.08c-0.69-1.42-3.51,0.35-5.03,1.46C191.72,123.1,195.6,123,195.6,123z
			"/>
		<path class="st8" d="M193.51,124.12c-2.25-0.72,3.94-5.86,1.45-5.86c-1.72,0-5.11,5.17-6.95,8.33
			C187.55,129.29,193.51,124.12,193.51,124.12z"/>
		<path class="st8" d="M197.21,125.17c1.66-0.76,2.46-1.32,2.22-2.08c-0.39-1.24-1.2-0.51-3.04,0.18
			C193.53,124.33,197.21,125.17,197.21,125.17z"/>
	</g>
	<g>
		<path class="st8" d="M211.28,119.64c4.21-1.07,10-1.03,15.73,1.59l-0.3,2.32c-5.78,0.82-12.61,3.71-14.2,3.16
			C211.97,126.5,209.88,119.99,211.28,119.64z"/>
		<path class="st8" d="M214.67,126.42c-1.83,0.43-3.74,1.11-4.03,0.42c-0.45-1.09,0.53-0.94,2.68-1.9
			C216.23,123.65,214.67,126.42,214.67,126.42z"/>
		<path class="st8" d="M212.31,121.56c-1.88,0.17-3.48,0.54-3.69-0.32c-0.39-1.53,1.87-1.8,3.84-1.86
			C215.5,119.28,212.31,121.56,212.31,121.56z"/>
		<path class="st8" d="M214.73,121.16c1.56-2.25-6.47-2.36-4.76-3.66c1.38-1.04,7.23,0.9,10.82,2.26
			C222.96,121.59,214.73,121.16,214.73,121.16z"/>
		<path class="st8" d="M212.46,124.22c-1.84,0.41-3.66,0.72-3.97-0.01c-0.51-1.2,1.43-1.39,3.37-1.97
			C214.86,121.34,212.46,124.22,212.46,124.22z"/>
	</g>
	<path class="st12" d="M196.48,68.53c0.02,0.24,3.2,1.52,4.3,1.52c1.88,0,4.1-1.25,4.16-1.67c0.14-1.01-4.34-13.31-5.44-13.42
		C198.39,54.85,196.34,67.06,196.48,68.53z"/>
	<path class="st8" d="M198.29,69.41c0.03,0.26,1.81,0.59,2.43,0.57c1.05-0.04,3.44-1.24,3.44-1.7c0.01-1.11-2.88-15.25-4.35-15.08
		C198.19,53.39,198.11,67.81,198.29,69.41z"/>
	<path class="st14" d="M212.88,56.3c-0.14-1.91-1.27-3.36-2.53-3.22c-1.26,0.14-2.18,1.8-2.04,3.72c0.14,1.92,1.27,3.36,2.54,3.22
		C212.1,59.88,213.01,58.22,212.88,56.3z"/>
	<path class="st14" d="M192.53,57.99c0-1.91-1.03-3.41-2.31-3.33c-1.27,0.08-2.3,1.69-2.3,3.6c0,1.92,1.03,3.41,2.3,3.33
		C191.5,61.52,192.53,59.91,192.53,57.99z"/>
	<path class="st15" d="M201.26,76.3c0.21-0.63-0.83-1.55-2.32-2.05c-1.5-0.5-2.88-0.39-3.09,0.24c-0.21,0.63,0.98,1.09,2.47,1.59
		C199.81,76.58,201.04,76.93,201.26,76.3z"/>
	<path class="st11" d="M183.83,50.21c-0.21-0.74-0.19-1.5,0.06-2.07c0.68-1.55,10.6-1.09,11.14,1.02l0.34,1.32
		c0.39,1.52-2.78,0.71-5.59,1.08c-2.69,0.35-5,1.94-5.41,0.53L183.83,50.21z"/>
	<path class="st11" d="M204.06,53.53c-0.02,0.74,0.19,1.47,0.59,1.98c1.07,1.38,10.88-0.65,10.88-2.76v-1.33
		c0-1.52-2.96-0.24-5.87-0.14c-2.77,0.08-5.49-1.08-5.54,0.35L204.06,53.53z"/>
</g>
<g>
	<path class="st16" d="M329.81,106.11c6.66,9.08-16.75,60.82-25.74,62.18c-9,1.36-37.07-25.25-37.74-31.71
		c-0.67-6.5,5.28-9.7,7.95-8.44c2.66,1.26,27.31,21.3,27.31,21.3S319.47,92,329.81,106.11z"/>
	<path class="st17" d="M280.02,143.51c-2.62-6.31-6.17-11.55-9.75-14.89c1.45-0.79,2.98-0.99,4.02-0.5
		c2.66,1.26,27.31,21.3,27.31,21.3s17.88-57.42,28.22-43.31c6.66,9.08-16.75,60.82-25.74,62.18c-4.25,0.64-12.75-4.95-20.61-11.72
		C283.07,152.62,281.93,148.12,280.02,143.51z"/>
	<path class="st18" d="M325.14,212.02c4.41-14.54-0.64-32.99-0.64-32.99l35.95-13.4c0,0,5.73,16.41,19.13,41.31
		c14.72,27.35-6.99,134.21-6.99,134.21c7.36,62.31,1.11,112.52,1.11,112.52h-2.95c-0.37-22.5-21.13-111.9-21.13-111.9l0.53-81.62
		h-4.42l-20.76,81.62c6.62,31.16-1.31,111.9-1.31,111.9h-3.68c0-35.31-19.4-111.9-19.4-111.9S320.73,226.56,325.14,212.02z"/>
	<g>
		<path class="st19" d="M372.98,339.26c-0.24,1.23-0.37,1.89-0.37,1.89c7.36,62.31,1.11,112.52,1.11,112.52h-2.95
			c-0.35-21.26-18.89-102.18-20.94-111.09C357.74,341.86,365.47,340.74,372.98,339.26z"/>
		<path class="st19" d="M325.33,343.56c5.98,32.34-1.66,110.12-1.66,110.12h-3.68c0-34.21-18.21-107.16-19.35-111.68
			C308.68,342.93,316.93,343.46,325.33,343.56z"/>
	</g>
	<path class="st20" d="M380.08,212.71c0,0-35.32,14.77-55.43,0.69l0.24-6.92l50.53-3.92L380.08,212.71z"/>
	<g>
		<path class="st20" d="M367.47,341.59c0,0,20.31-110.47,4.71-137.54c-9.44-16.37-16.33-28.84-19.9-35.37l8.18-3.05
			c0,0,7.94,15.95,21.34,40.85c14.72,27.35-9.2,134.67-9.2,134.67c7.36,62.31,1.11,112.52,1.11,112.52h-1.21
			C373.25,442.91,375.71,396.69,367.47,341.59z"/>
		<path class="st20" d="M320.97,343.81l21.49-85.56l3.77-1.92l3.93,3.81l-25.18,81.62c6.62,31.16-1.31,111.9-1.31,111.9h-1.03
			C323.62,435.39,327.49,370.55,320.97,343.81z"/>
	</g>
	<polygon class="st20" points="361.01,253.57 346.23,256.34 331.95,254.95 348.68,260.72 	"/>
	<path class="st16" d="M323.42,210.18c5.38,11.84,55.72,1.15,55.92-9.69c0.19-10.16-13.08-27.06-14.03-40.35
		c-0.95-13.29,6.31-43.01-0.1-53.15c-6.42-10.14-38.38-7.69-44.14,0.35c-5.76,8.04-17.21,28.33-16.76,33.57
		c0.45,5.24,13.6,22.73,17.49,36.02C325.5,189.54,319.61,201.78,323.42,210.18z"/>
	<path class="st17" d="M326.57,103.51c8.21-3.47,22.49-4.44,31.52-1.38C354.92,111.76,327.41,112.16,326.57,103.51z"/>
	<path class="st17" d="M329.74,171.86c-3.73,0.74-8.46,0.69-7.94,5.06c-3.89-13.29-17.04-30.77-17.49-36.02
		c-0.02-0.23-0.01-0.51,0.02-0.8c39.11,9.34,50.8-17.19,54.66-31.47c1.74,0.94,5.33-3.05,6.23-1.64c6.41,10.14-0.84,39.86,0.1,53.15
		c0.94,13.29,14.21,30.19,14.03,40.35c-0.07,3.7-5.97,7.38-13.93,10.15C357.82,190.32,340.94,169.65,329.74,171.86z"/>
	<path class="st21" d="M322.98,189.88c0.23-4.18,0.12-8.55-1.18-12.96c-0.74-2.51-1.81-5.18-3.06-7.88
		c14.68-0.59,33.8-2.52,46.66-8.19c0.64,6.21,3.79,13.15,6.96,19.81C361.15,186.22,343.32,192.47,322.98,189.88z"/>
	<path class="st16" d="M364.88,106.47c8.95,6.28,2.93,61.08-5.27,65.62c-8.32,4.6-44.53-9.71-47.21-15.79
		c-2.68-6.1,2.37-11.29,5.44-11c3.06,0.29,33.56,10.95,33.56,10.95S350.88,96.66,364.88,106.47z"/>
	<path class="st17" d="M356.49,168.38c7.13-3.94,12.55-46.88,7.97-62.17c0.14,0.09,0.27,0.17,0.42,0.26
		c8.95,6.28,3.01,62.45-5.19,66.98c-8.32,4.6-44.86-10.86-47.54-16.94c-0.36-0.81-0.31-1.81-0.42-2.57
		C320.63,160.95,349.23,172.39,356.49,168.38z"/>
	<path class="st16" d="M356.58,102.71c3.36-3.18,1.8-15.01-1.95-17.74c-8.41-6.12-25.93,4.03-26.75,6.11
		c-0.82,2.08-2.52,10.37-1.02,12.81C329.42,108.06,347.55,111.25,356.58,102.71z"/>
	<path class="st10" d="M326,456.55h-17.85c0,0,10.61-8.13,14.47-6.23C326.49,452.22,326,456.55,326,456.55z"/>
	<path class="st10" d="M376.52,456.55h-17.85c0,0,10.61-8.13,14.47-6.23C377.01,452.22,376.52,456.55,376.52,456.55z"/>
	<path class="st8" d="M258.03,128.65c-0.77-0.1-1.91-0.18-3.01-0.28c-1.85-0.17-3.73-1.03-3.69-1.7c0.04-0.56,1.41,0.09,2.71,0.2
		c1.2,0.1,1.62,0.17,1.62-0.11c0.01-0.19-1.55-0.58-3.21-1.04c-1.99-0.54-3.22-1.19-3.16-1.88c0.04-0.68,1.28-0.03,3.11,0.26
		c1.71,0.27,2.49,0.48,2.62-0.25c0.07-0.35-1.12-0.64-2.81-1.42c-1.87-0.85-2.9-1.81-2.7-2.38c0.3-0.84,0.99,0.15,3.29,0.82
		c3.24,0.95,3.58,1.78,5.72,1.07c2.18-0.73-4.1-6.24-2.22-6.13c1.56,0.1,11.46,9.96,11.84,12.07
		C267.96,131.53,264.34,128.04,258.03,128.65z"/>
	<polygon class="st17" points="273.15,128.61 266.41,135.28 264.34,131.48 269.53,125.46 	"/>
	<path class="st9" d="M301.48,152.01c-0.74,0.21-1.82,0.58-2.86,0.92c-1.76,0.56-3.85,0.51-4.11-0.12
		c-0.21-0.53,1.32-0.47,2.56-0.88c1.14-0.38,1.55-0.48,1.43-0.73c-0.08-0.18-1.67,0.08-3.38,0.3c-2.05,0.27-3.45,0.16-3.71-0.49
		c-0.25-0.63,1.15-0.52,2.96-0.97c1.68-0.42,2.48-0.53,2.27-1.25c-0.09-0.35-1.3-0.15-3.18-0.2c-2.08-0.05-3.44-0.51-3.5-1.11
		c-0.1-0.88,0.96-0.25,3.36-0.53c3.37-0.4,4.04,0.22,5.68-1.25c1.66-1.51-6.47-4.09-4.71-4.72c1.47-0.51,14.81,4.61,16.08,6.39
		C311.78,150.77,306.95,149,301.48,152.01z"/>
	<polygon class="st17" points="315.23,146.1 312.02,154.78 308.46,152.13 310.55,144.63 	"/>
	<path class="st22" d="M366.59,75.39c7.36-11.54,14.81-36.42,2.21-45.47c-9.32-6.69-16.94,1.38-19.87,9
		C346,46.54,366.59,75.39,366.59,75.39z"/>
	<path class="st23" d="M349.66,37.23c0.77,0.96,1.73,1.8,2.88,2.45c5.03,2.8,11.7,0.93,14.91-4.17c1.06-1.69,1.6-3.53,1.67-5.33
		c12.14,9.25,4.76,33.77-2.53,45.21c0,0-20.59-28.85-17.66-36.47C349.15,38.36,349.39,37.79,349.66,37.23z"/>
	<path class="st22" d="M307.67,40.65c2.45-7.38,13.24-6.23,13.24-6.23c1.23-5.77,29.56-15.12,39.36,8.65
		c9.81,23.77-0.49,37.04-13.55,47.89l-27.84-12.41C304.91,63.79,305.21,48.04,307.67,40.65z"/>
	<path class="st23" d="M341.96,51.65c4.41-7.67,5.84-15.8,4.57-22.46c5.49,2.01,11.32,6.04,14.49,13.71
		c9.81,23.77-1.23,37.22-14.29,48.07l-27.84-12.41c-3.13-3.31-5.54-6.67-7.38-9.98C321.56,71.45,334.6,64.45,341.96,51.65z"/>
	<path class="st8" d="M334.54,100.8c6.85-3.36,14.73-8.84,16.96-15.59c2.26-6.83-2.04-45.49-29.12-41.96
		C299.27,46.26,314.32,89.56,334.54,100.8z"/>
	<path class="st22" d="M349.24,89.47c0.74-8.65,0.81-22.39-8.64-31.85c-11.59-11.6-20.42-12.12-18.95-16.44
		c1.99-5.85,26.86-6.75,34.03,11.94C362.85,71.81,349.24,89.47,349.24,89.47z"/>
	<path class="st23" d="M345.9,41.41c4.62,1.2,8.67,5.79,10.76,11.24c7.17,18.69-7.42,36.81-7.42,36.81
		c0.74-8.65,0.81-22.39-8.64-31.85c-1.41-1.41-2.78-2.65-4.09-3.76C340.88,51.72,344.33,47.16,345.9,41.41z"/>
	<path class="st8" d="M350.34,72.33c1.51-5.1,4.78-10.56,8.46-7.79c3.68,2.77,0.92,15.41-4.6,16.79
		C348.69,82.71,349.42,75.44,350.34,72.33z"/>
	<path class="st12" d="M351.57,74.06c0.96-3.26,3.06-6.75,5.41-4.98c2.35,1.77,0.59,9.85-2.94,10.73
		C350.51,80.7,350.98,76.05,351.57,74.06z"/>
	<path class="st8" d="M351.61,76.48c0.67-2.28,2.14-4.71,3.78-3.48c1.64,1.24,0.41,6.88-2.05,7.5
		C350.87,81.11,351.2,77.87,351.61,76.48z"/>
	<path class="st22" d="M345.74,78.16c-0.49-7.96-2.7-13.73-5.77-17.31c-3.07-3.58-18.76-11.08-17.78-19.74l4.66,0.81
		c0.74,7.5,4.75,10.67,11.29,14.77C348.07,62.92,345.74,78.16,345.74,78.16z"/>
	<path class="st22" d="M322.57,41.8c-0.5,4.21-9.57,10.04-11.28,7.73C309.57,47.23,323.18,36.61,322.57,41.8z"/>
	<g>
		<path class="st22" d="M342.25,60.39c-4.75-1.42-10.05-2.37-16.14,2.76c0.18-1.38,2.66-5.08,6.55-5.83
			C338.6,56.16,342.25,60.39,342.25,60.39z"/>
		<path class="st22" d="M325.65,71.4c-3.05-0.7-6.39-1.18-9.68,1.46c0,0-0.05-2.38,3.51-2.99C323.03,69.27,325.65,71.4,325.65,71.4z
			"/>
		<path class="st22" d="M317.32,75.03c-0.91-1.73-0.29-3.69,1.38-4.37c1.67-0.67,3.75,0.19,4.66,1.92c0.9,1.74,0.28,3.7-1.39,4.38
			C320.3,77.62,318.22,76.76,317.32,75.03z"/>
		<path class="st22" d="M342.27,67.82c-3.01-1-6.33-1.79-9.97,0.5c0,0,0.23-2.37,3.91-2.63C339.88,65.44,342.27,67.82,342.27,67.82z
			"/>
		<path class="st22" d="M310.78,68.43c3.11-3.56,7.39-4.49,13.37-2.96c0,0-3.94-3.45-8.95-2.47
			C310.19,63.98,310.78,68.43,310.78,68.43z"/>
		<path class="st12" d="M328.33,77.86l0.2,0.47c-1.1,1.44-1.92,2.85-1.68,3.62c0.43,1.39,2.48,1.21,3.69,0.97l0.07,0.14
			c0,0-3.99,1.25-4.61-0.76C325.71,81.39,326.9,79.58,328.33,77.86z"/>
		<path class="st22" d="M333.47,70.58c-0.69-1.77,0.15-3.61,1.89-4.12c1.72-0.5,3.69,0.54,4.38,2.31c0.69,1.78-0.15,3.62-1.89,4.12
			C336.13,73.39,334.16,72.35,333.47,70.58z"/>
		<path class="st24" d="M337.32,85.71l-11.91,2.16c0,0,4.31,6.64,8.55,5.87C338.19,92.98,337.32,85.71,337.32,85.71z"/>
		<path class="st25" d="M328.56,90.9c-1.36-1.35-2.27-2.75-2.27-2.75l10.53-1.91c0,0,0.18,1.53-0.07,3.17L328.56,90.9z"/>
	</g>
</g>
<g>
	<polygon class="st26" points="17.42,270.55 8.12,266.66 16.44,260.55 	"/>
	<polygon class="st27" points="13.49,258.33 4.18,254.44 12.51,248.34 	"/>
	<polygon class="st28" points="122.77,135.02 113.38,141.51 121.86,153.6 129.76,147.13 	"/>
	<path class="st29" d="M126.79,141.98c-0.91,1.2-2.2,1.96-3.64,1.96c-2.64,0-4.79-2.54-4.98-5.74l-4.79,3.31l8.48,12.1l7.9-6.47
		L126.79,141.98z"/>
	<path class="st30" d="M115.93,138.13c0,0-34.41,22.23-51.69,21.87l7.85,39.67c14.45-1.78,40.92-23.74,56.57-39.67L115.93,138.13z"
		/>
	<path class="st31" d="M122.76,149.91c-15.85,15.62-35.28,33.23-48.97,34.92l-8.52-24.85c-0.35,0.01-0.7,0.03-1.04,0.02l7.85,39.67
		c14.45-1.78,40.92-23.74,56.57-39.67L122.76,149.91z"/>
	<path class="st32" d="M81.14,93.41c9.56,3.31,21.01,27.1,18.92,74.52l-26.38,15.43C73.68,183.37,63.75,87.39,81.14,93.41z"/>
	<path class="st33" d="M102.01,340.7L89.42,230.63l-77.1,6.42l9.97,106.12C3.92,393.52,1.82,454.23,1.82,454.23h2.03
		c13.64-47.88,43.08-110.57,43.08-110.57l7.04-58.23l6.59-2.48l16.26,63.3c0,32.58,21.83,107.97,21.83,107.97h2.16
		C98.73,417.7,102.01,340.7,102.01,340.7z"/>
	<g>
		<path class="st34" d="M101.87,344c-8.04,1.25-16.42,2.08-25.04,2.42c0.07,32.67,21.83,107.81,21.83,107.81h2.16
			C98.98,422.21,101.28,359.08,101.87,344z"/>
		<path class="st34" d="M22.16,341.91l0.12,1.26C3.92,393.52,1.82,454.23,1.82,454.23h2.03c12.23-42.95,37.18-97.81,42.19-108.65
			C37.76,344.79,29.78,343.55,22.16,341.91z"/>
	</g>
	<g>
		<path class="st35" d="M83.91,349.09l-19.28-68.18l-6.09,2.25l18.28,63.09c0,31.32,20.18,102.21,21.73,107.63
			C94.1,435.17,82.99,376.73,83.91,349.09z"/>
		<path class="st35" d="M3.56,454.23c1.4-15.33,7.05-65.6,23.83-108.38l-2.09-74l67.82-7.55l-2.12-35.95l-78.68,8.7l9.97,106.12
			C3.92,393.52,1.82,454.23,1.82,454.23H3.56z"/>
	</g>
	<polygon class="st35" points="40.24,284.24 54.4,286.28 65.03,282.76 73.88,272.77 58.34,282.39 	"/>
	<polygon class="st28" points="8.12,266.66 8.12,231.61 92.3,223.72 93.61,257.04 	"/>
	<polygon class="st29" points="7.92,260.92 7.92,225.88 92.1,217.98 93.42,251.3 68.96,254.07 68.76,251.11 65.6,254.43 	"/>
	<path class="st36" d="M96.69,455.46h26.16c0,0-18.69-8.7-22.82-6.66C95.91,450.83,96.69,455.46,96.69,455.46z"/>
	<path class="st36" d="M-3.23,455.46h18.29c0,0-7.67-8.7-11.8-6.66C-0.87,450.83-3.23,455.46-3.23,455.46z"/>
	<path class="st30" d="M4.18,254.32l61.89-4.2l3.41-19.25l0.52,18.76l26.75-1.73c0,0,1.05-133.03-9.7-149.07
		C76.3,82.8,32.7,78.16,17.29,99.58C-11.29,139.31,4.18,254.32,4.18,254.32z"/>
	<path class="st29" d="M74.47,216.31c0-1.36-0.53-2.47-1.18-2.47c-0.65,0-1.18,1.11-1.18,2.47c0,1.36,0.53,2.47,1.18,2.47
		C73.94,218.78,74.47,217.68,74.47,216.31z"/>
	<path class="st29" d="M74.47,198.3c0-1.36-0.53-2.47-1.18-2.47c-0.65,0-1.18,1.11-1.18,2.47c0,1.36,0.53,2.47,1.18,2.47
		C73.94,200.77,74.47,199.66,74.47,198.3z"/>
	<path class="st29" d="M74.47,139.81c0-1.36-0.53-2.47-1.18-2.47c-0.65,0-1.18,1.1-1.18,2.47s0.53,2.47,1.18,2.47
		C73.94,142.28,74.47,141.17,74.47,139.81z"/>
	<polygon class="st37" points="76.04,130.98 37.49,87.12 80.76,93.22 	"/>
	<path class="st30" d="M28.31,103.53c-5.85,2.35-7.44-8.92-11.01-3.95C-11.29,139.31,4.18,254.32,4.18,254.32l47.25-3.2
		C30.01,215.94,38.08,116.38,28.31,103.53z"/>
	<path class="st28" d="M74.73,126.36L37.49,87.12c0,0,18.88-10,42.88,5.18L74.73,126.36z"/>
	<polygon class="st28" points="40.18,88.1 45.71,78.15 80.33,90.69 80.37,92.3 	"/>
	<polygon class="st38" points="70.4,108.34 45.65,86.19 45.71,78.15 80.33,90.69 	"/>
	<path class="st30" d="M39.26,188.18c-14.99-12.67-35.21-50.35-27.34-78.85c7.87-28.5,32.25-13,42.88,38.13
		C58.34,164.49,58.53,204.47,39.26,188.18z"/>
	<path class="st39" d="M135.72,13.88c-2.73-6.83-16.91,4.68-16.91,4.68s3.03-12.62-0.73-13.45c-3.77-0.84-7.21,7.72-7.21,7.72
		s-2.39-9.95-5.58-9.96c-3.2-0.01-2.46,3.88-2.46,3.88s-12.63-8.4-16.96-6.45c-4.33,1.95-0.07,4.76-0.07,4.76S74.75,3.07,71.98,6.71
		c-2.77,3.64,2.08,5.59,2.08,5.59s-7.81-1.67-10.07,0.57c-12.3,12.22-4.1,41.31-4.1,41.31s-4.55-2.1-5.62-0.46
		c-1.08,1.65,0.21,8.11,3.83,19.29l47.69-34.84C105.79,38.18,138.42,20.66,135.72,13.88z"/>
	<path class="st39" d="M89.65,17.12c0-5.71,1.23-11.06,3.34-15.69c-2.81-1.16-5.54-1.85-7.14-1.14c-4.33,1.95-0.07,4.76-0.07,4.76
		S74.75,3.07,71.98,6.71c-2.77,3.64,2.08,5.59,2.08,5.59s-7.81-1.67-10.07,0.57c-12.3,12.22-4.1,41.31-4.1,41.31
		s-4.55-2.1-5.62-0.46c-1.08,1.65,0.21,8.11,3.83,19.29l41.77-30.51C93.68,36.72,89.65,27.52,89.65,17.12z"/>
	<polygon class="st8" points="46.93,86.01 66.34,46.27 81.11,69.43 77.48,90.94 69.75,105.75 	"/>
	<path class="st1" d="M64.04,123.21C84.5,122.65,87.25,107.29,85.39,96c-1.09-0.96-2.18-1.7-3.24-2.19
		c-0.58-0.44-1.19-0.87-1.83-1.28l0.04-0.24l-0.04-1.61l-2.64-0.96l3.43-20.31L66.34,46.27L50.01,79.71l-4.29-1.56l-4.12,7.39
		c-1.22,0.37-2.19,0.73-2.88,1.01c-6.55,1.51-12.57,4.27-17.26,8.47C38.08,92.48,47.56,123.66,64.04,123.21z"/>
	<path class="st8" d="M89.27,94.75c0,0-31.27-14.6-31.84-18.65c-0.57-4.05,12.77-55.84,37.15-57.31c6.57-0.4,21.44,10.7,21.14,14.96
		C115.42,38.01,101.66,76.24,89.27,94.75z"/>
	<path class="st39" d="M90.1,13.69c-12.31,5.13-30.82,33.96-31.97,58.52l9.09,4.31c0,0-7.73-28.26,25.52-55.71
		c3.02-2.49,21.97,15.28,21.97,15.28l12.44-6.99C127.14,29.1,102.41,8.56,90.1,13.69z"/>
	<path class="st40" d="M89.98,23.17c-0.35-1.95-0.54-3.98-0.54-6.05c0-1.08-0.24-3.52-0.14-4.58C77,18.22,59.26,47.98,58.13,72.21
		l9.09,4.31C67.21,76.52,59.92,49.85,89.98,23.17z"/>
	<path class="st8" d="M67.59,50.84c0.37-5.33,2.67-13.75-3.52-14.67c-6.2-0.92-12.71,10.92-2.61,20.99
		C65.18,60.86,67.59,50.84,67.59,50.84z"/>
	<path class="st12" d="M65.14,50.38c0.21-3.04,1.52-7.84-2.01-8.37c-3.53-0.53-7.25,6.22-1.49,11.97
		C63.76,56.1,65.14,50.38,65.14,50.38z"/>
	<path class="st8" d="M64.67,53.21c0.14-1.97,0.99-5.08-1.3-5.42c-2.29-0.34-4.69,4.03-0.96,7.75
		C63.78,56.91,64.67,53.21,64.67,53.21z"/>
	<g>
		<path class="st9" d="M134.89,127.62c-4.65,3.2-6.55,7.66-10.55,12.06l3.46,4.25c5.8-4.94,11.55-7.23,12.44-9.25
			C140.52,134,136.44,126.56,134.89,127.62z"/>
		<path class="st9" d="M138.08,136.55c1.99-1.42,5.01-4.27,4.65-5.13c-0.6-1.35-2.56,0.08-4.81,2.58
			C134.22,135.77,138.08,136.55,138.08,136.55z"/>
		<path class="st9" d="M135.74,130.22c1.8-1.69,7.94-6.4,7.34-7.32c-1.06-1.64-7.68,3.78-9.45,5.64
			C130.88,131.42,135.74,130.22,135.74,130.22z"/>
		<path class="st9" d="M131.93,132c-3.41-0.35,2.53-8.05-0.2-8.32c-1.83-0.19-4.71,8.8-4.92,12.63
			C126.59,139.95,131.93,132,131.93,132z"/>
		<path class="st9" d="M138.03,132.58c1.98-1.44,5.36-4.75,4.96-5.67c-0.64-1.49-4.03,2.04-6.24,3.43
			C133.32,132.52,138.03,132.58,138.03,132.58z"/>
	</g>
	<g>
		<path class="st9" d="M117.08,130.32c-4.65,3.2-6.55,7.66-10.55,12.06l3.46,4.25c5.8-4.94,11.55-7.24,12.44-9.25
			C122.72,136.69,118.63,129.25,117.08,130.32z"/>
		<path class="st9" d="M120.27,139.25c1.99-1.42,5.89-3.13,5.52-3.99c-0.6-1.35-2.94,0.17-5.68,1.45
			C116.41,138.47,120.27,139.25,120.27,139.25z"/>
		<path class="st9" d="M117.93,132.92c1.8-1.69,5.34-3.87,4.74-4.79c-1.06-1.65-5.08,1.25-6.85,3.11
			C113.08,134.12,117.93,132.92,117.93,132.92z"/>
		<path class="st9" d="M114.12,134.7c-3.41-0.35,2.53-8.04-0.2-8.31c-1.83-0.19-4.71,8.8-4.92,12.63
			C108.78,142.64,114.12,134.7,114.12,134.7z"/>
		<path class="st9" d="M120.22,135.28c1.98-1.44,5.01-3.34,4.61-4.26c-0.64-1.49-3.67,0.63-5.88,2.02
			C115.51,135.22,120.22,135.28,120.22,135.28z"/>
	</g>
	<path class="st9" d="M142.93,126.9c-0.12-0.64-1.14-0.99-2.29-0.79c-1.15,0.2-1.98,0.89-1.87,1.53c0.12,0.64,1.15,0.99,2.3,0.79
		C142.22,128.22,143.06,127.54,142.93,126.9z"/>
	<path class="st9" d="M125.48,128.06c-0.12-0.64-1.46-0.92-2.99-0.63c-1.53,0.29-2.68,1.03-2.56,1.67c0.12,0.63,1.38,0.68,2.92,0.39
		C124.38,129.2,125.6,128.7,125.48,128.06z"/>
	<path class="st9" d="M125.51,134.69c-0.65-0.11-1.61,0.53-2.14,1.44c-0.53,0.91-0.43,1.75,0.22,1.86c0.65,0.11,1.35-0.56,1.88-1.47
		C126,135.61,126.16,134.8,125.51,134.69z"/>
	<path class="st9" d="M123.59,135.08c0.66-0.08,1.25-1.15,1.32-2.41c0.07-1.26-0.4-2.21-1.06-2.14c-0.66,0.08-0.99,1.1-1.07,2.36
		C122.71,134.15,122.93,135.15,123.59,135.08z"/>
	<path class="st31" d="M44.47,179.76c-15.08-12.11-35.68-49.38-29.57-77.9c-1.15,2.03-2.15,4.49-2.97,7.46
		c-7.87,28.5,12.15,67.29,27.14,79.96c9.11,7.7,13.91,2.57,16.07-6.77C52.57,184.03,49.1,183.48,44.47,179.76z"/>
	<polygon class="st28" points="106.83,137.98 96.69,143.38 103.58,156.34 112.23,150.79 	"/>
	<path class="st29" d="M105.84,146.72c-3.73,0-6.9-1.63-8.07-3.91l-1.08,0.57l6.88,12.96l8.65-5.55l-2.06-4.88
		C108.9,146.42,107.42,146.72,105.84,146.72z"/>
	<path class="st30" d="M100.04,139.31c0,0-38.16,15.92-55.08,12.59l0.39,39.61c14.56,0.74,44.45-15.55,62.94-28.5L100.04,139.31z"/>
	<path class="st31" d="M105.23,154.22c-18.28,12.42-46.19,25.82-60.27,25.7l-0.4,12.71c7.74,3.95,45.25-16.67,63.74-29.63
		L105.23,154.22z"/>
	<path class="st31" d="M54.01,148.57c0.29,1.39,0.55,2.94,0.79,4.59c15.64-2.37,23.66-5.39,29.59-8.08
		c-8.73,2.9-19.65,6.01-28.8,6.97c-0.23-1.65-0.5-3.21-0.79-4.59c-9.33-44.89-29.27-62.31-39.32-46.6
		C25.75,87.18,44.91,104.81,54.01,148.57z"/>
	<path class="st31" d="M54.6,151.71c0,0-4.39,6.67-3.93,8.14c0.33,1.05,5.31-7.03,5.31-7.03L54.6,151.71z"/>
	<path class="st31" d="M55,150.64c0,0-4.83,1.12-5.3,1.91c-0.34,0.55,5.09,0.82,5.09,0.82L55,150.64z"/>
	<path class="st8" d="M97.53,51.05c0,0,2.46,21.52,0.4,22.14c-2.07,0.62-9.82-7.59-9.17-9C89.41,62.78,96.46,49.99,97.53,51.05z"/>
	<path class="st39" d="M98.92,44.61L84.2,43.37v0c-0.12-1.48,0.61-2.89,1.93-3.77c1.33-0.88,3.08-1.11,4.7-0.62l8.26,2.51
		L98.92,44.61z"/>
	<path class="st39" d="M103.03,46.69l2.17-2.87l3.2,1.14c1.57,0.56,2.82,1.79,3.33,3.29c0.52,1.5,0.25,3.09-0.73,4.26L103.03,46.69z
		"/>
	<path class="st12" d="M97.8,51.6c-0.09-0.09-0.24-0.05-0.41,0.05c0.53,5.14,1.91,19.88,0.21,20.38c-1.62,0.49-6.75-4.48-8.56-7.31
		c0,0-0.01,0.01-0.01,0.02c-0.65,1.4,7.1,9.62,9.17,9C100.26,73.12,97.8,51.6,97.8,51.6z"/>
	<path class="st41" d="M96.78,75.55l-16.24-7.79c0,0-4.97,8.12-1.61,10.65c3.36,2.53,8.25,4.31,11.07,3.46
		C92.83,81.01,96.78,75.55,96.78,75.55z"/>
	<path class="st42" d="M92.62,79.56c1.92-1.77,3.61-4.11,3.61-4.11l-15.28-7.33c0,0-1.43,2.35-2.18,4.85L92.62,79.56z"/>
	<path class="st39" d="M91.2,54.12l-5.91-1.44c0,0,2.7-6.02,5.71-4.81C92.92,48.64,91.2,54.12,91.2,54.12z"/>
	<path class="st39" d="M105.17,59.75l-5.04-2c0,0,2.84-5.75,5.36-4.26C107.12,54.44,105.17,59.75,105.17,59.75z"/>
</g>
</svg>
