 <svg
    xmlns="http://www.w3.org/2000/svg"
    xmlns:xlink="http://www.w3.org/1999/xlink"
    viewBox="0 0 640 640"
    class="flask"
  >
    <defs>
      <path
        id="a"
        d="M482.86 121.26H354.23v103.33c-55.37 24.63-93.98 80.13-93.98 144.67 0 87.41 70.87 158.28 158.28 158.28s158.31-70.87 158.31-158.28c0-64.54-38.61-120.04-93.98-144.67V121.26z"
      />
      <path
        id="b"
        d="M418.53 495.49c-22.91 0-44.38-6.14-62.95-16.84-37.81-21.81-63.29-62.69-63.29-109.39 0-34.9 14.49-67.62 38.78-91.03h174.95c24.34 23.41 38.78 56.09 38.78 91.03 0 69.6-56.63 126.23-126.27 126.23z"
      />
      <path
        id="c"
        d="M383.16 196c0-15.49 12.55-28.04 28.04-28.04h71.66v-30.7l-25.51-23.2-24.04-6.4-79.08 29.6v87.29c-55.37 24.67-93.98 80.17-93.98 144.71 0 87.03 70.28 157.69 157.18 158.28-47.62-1.1-85.98-71.54-85.98-158.28 0-64.54 21.22-120.04 51.71-144.67V196z"
      />
      <path
        id="d"
        d="M292.29 369.26c0-34.9 14.49-67.62 38.78-91.03h16.21c-9.97 25.73-15.83 57.14-15.83 91.03 0 42.45 9.18 80.97 24.17 109.39-37.85-21.81-63.33-62.69-63.33-109.39z"
      />
      <path
        id="e"
        d="M261.43 280.63v-92.12h-97.68v92.12C102.08 387.47 67.82 446.82 60.97 458.69c-17.64 30.62 4.42 68.85 39.75 68.85h223.83c35.28 0 57.39-38.23 39.7-68.85-13.71-23.74-47.98-83.09-102.82-178.06z"
      />
      <path
        id="f"
        d="M231.54 171.71l-57.31.58-10.48 16.22v92.12C102.08 387.47 67.82 446.82 60.97 458.69c-17.69 30.62 4.42 68.85 39.75 68.85h61.09c-16.04 0-26.06-38.23-18.06-68.85 3.11-11.87 18.68-71.22 46.69-178.06v-47.28c0-9.73 7.88-17.6 17.6-17.6h53.43v-27.24l-29.93-16.8z"
      />
      <path
        id="g"
        d="M276.08 188.51H149.14c-5.73 0-10.95-2.32-14.74-6.11a20.814 20.814 0 01-6.11-14.74c0-11.49 9.31-20.8 20.8-20.8H276c5.73 0 10.95 2.32 14.74 6.11 3.79 3.79 6.14 9.01 6.14 14.74 0 11.49-9.3 20.8-20.8 20.8z"
      />
      <path
        id="h"
        d="M276.08 188.51h-76.42c-5.77 0-10.94-2.32-14.73-6.11a20.814 20.814 0 01-6.11-14.74c0-11.49 9.31-20.8 20.8-20.8h76.42c5.73 0 10.95 2.32 14.74 6.11 3.75 3.79 6.1 9.01 6.1 14.74 0 11.49-9.3 20.8-20.8 20.8z"
      />
      <path
        id="i"
        d="M497.94 137.26H340.93a20.71 20.71 0 01-14.74-6.1c-3.75-3.79-6.11-8.97-6.11-14.74 0-11.49 9.31-20.8 20.85-20.8h156.96c5.73 0 10.95 2.32 14.74 6.11 3.79 3.79 6.11 8.96 6.11 14.73 0 11.5-9.31 20.8-20.8 20.8z"
      />
      <path
        id="j"
        d="M497.94 137.26H389.6a20.78 20.78 0 01-14.74-6.1c-3.74-3.79-6.1-8.97-6.1-14.74 0-11.49 9.3-20.8 20.8-20.8h108.29c5.73 0 10.95 2.32 14.74 6.11 3.83 3.79 6.15 8.96 6.15 14.73 0 11.5-9.31 20.8-20.8 20.8z"
      />
      <path
        id="k"
        d="M324.51 495.54H100.72c-6.95 0-10.53-4.34-12-6.95-1.48-2.57-3.5-7.83 0-13.85 5.03-8.73 30.21-52.35 75.53-130.87h96.72c45.32 78.52 70.5 122.14 75.54 130.87 3.49 6.02 1.51 11.24 0 13.85-1.48 2.61-5.06 6.95-12 6.95z"
      />
      <path
        id="l"
        d="M141.94 495.49h-41.22c-6.95 0-10.53-4.33-12-6.94-1.48-2.57-3.5-7.83 0-13.86 5.03-8.72 30.21-52.34 75.53-130.86h9.6l-30.1 114.86c-2.33 16.79-2.94 29.06-1.81 36.8z"
      />
      <path
        id="m"
        d="M364.82 361.51c0 3.91-2.91 7.09-6.5 7.09s-6.5-3.18-6.5-7.09c0-3.92 2.91-7.09 6.5-7.09s6.5 3.17 6.5 7.09z"
      />
      <path
        id="n"
        d="M389.51 424.1c0 3.92-2.92 7.09-6.5 7.09-3.59 0-6.5-3.17-6.5-7.09 0-3.91 2.91-7.09 6.5-7.09 3.58 0 6.5 3.18 6.5 7.09z"
      />
      <path
        id="o"
        d="M454.91 331.08c0 3.7-3.14 6.71-7 6.71s-7-3.01-7-6.71c0-3.71 3.14-6.72 7-6.72s7 3.01 7 6.72z"
      />
      <path
        id="p"
        d="M485.3 355.23c0 3.98-3.14 7.22-7 7.22s-7-3.24-7-7.22c0-3.99 3.14-7.22 7-7.22s7 3.23 7 7.22z"
      />
      <path
        id="q"
        d="M475.86 309.85c0 4.28 3.14 7.75 7 7.75 3.87 0 7-3.47 7-7.75 0-4.28-3.13-7.75-7-7.75-3.86 0-7 3.47-7 7.75z"
      />
      <path
        id="r"
        d="M173.85 444.1c0 3.92-2.91 7.09-6.5 7.09-3.58 0-6.5-3.17-6.5-7.09 0-3.91 2.92-7.09 6.5-7.09 3.59 0 6.5 3.18 6.5 7.09z"
      />
      <path
        id="s"
        d="M225.59 424.1c0 3.92-2.91 7.09-6.5 7.09s-6.5-3.17-6.5-7.09c0-3.91 2.91-7.09 6.5-7.09s6.5 3.18 6.5 7.09z"
      />
      <path
        id="t"
        d="M196.97 398.39c0 3.91-2.91 7.09-6.5 7.09s-6.5-3.18-6.5-7.09c0-3.91 2.91-7.09 6.5-7.09s6.5 3.18 6.5 7.09z"
      />
      <path
        id="u"
        d="M196.97 102.71c0 3.91-2.91 7.09-6.5 7.09s-6.5-3.18-6.5-7.09c0-3.91 2.91-7.09 6.5-7.09s6.5 3.18 6.5 7.09z"
      />
      <path
        id="v"
        d="M228.76 74.76c0 3.92-2.91 7.09-6.5 7.09s-6.5-3.17-6.5-7.09c0-3.91 2.91-7.09 6.5-7.09s6.5 3.18 6.5 7.09z"
      />
      <path
        id="w"
        d="M203.47 42.82c0 3.91-2.91 7.09-6.5 7.09s-6.5-3.18-6.5-7.09c0-3.92 2.91-7.09 6.5-7.09s6.5 3.17 6.5 7.09z"
      />
    </defs>
    <use xlink:href="#a" fill="#aefff6" />
    <use xlink:href="#a" fill-opacity="0" stroke="#000" stroke-opacity="0" />
    <use xlink:href="#b" fill="#ffd622" />
    <use xlink:href="#b" fill-opacity="0" stroke="#000" stroke-opacity="0" />
    <use xlink:href="#c" fill="#00cec0" />
    <use xlink:href="#c" fill-opacity="0" stroke="#000" stroke-opacity="0" />
    <use xlink:href="#d" fill="#fd8e00" />
    <use xlink:href="#d" fill-opacity="0" stroke="#000" stroke-opacity="0" />
    <use xlink:href="#e" fill="#e6e6e6" />
    <use xlink:href="#e" fill-opacity="0" stroke="#000" stroke-opacity="0" />
    <use xlink:href="#f" fill="#ccc" />
    <use xlink:href="#f" fill-opacity="0" stroke="#000" stroke-opacity="0" />
    <use xlink:href="#g" fill="#ccc" />
    <use xlink:href="#g" fill-opacity="0" stroke="#000" stroke-opacity="0" />
    <use xlink:href="#h" fill="#e6e6e6" />
    <use xlink:href="#h" fill-opacity="0" stroke="#000" stroke-opacity="0" />
    <use xlink:href="#i" fill="#00cec0" />
    <use xlink:href="#i" fill-opacity="0" stroke="#000" stroke-opacity="0" />
    <use xlink:href="#j" fill="#aefff6" />
    <use xlink:href="#j" fill-opacity="0" stroke="#000" stroke-opacity="0" />
    <use xlink:href="#k" fill="#00cbdc" />
    <use xlink:href="#k" fill-opacity="0" stroke="#000" stroke-opacity="0" />
    <use xlink:href="#l" fill="#008d97" />
    <use xlink:href="#l" fill-opacity="0" stroke="#000" stroke-opacity="0" />
    <g>
      <use xlink:href="#m" fill="#fff" />
    </g>
    <g>
      <use xlink:href="#n" fill="#fff" />
    </g>
    <g>
      <use xlink:href="#o" fill="#fff" />
    </g>
    <g>
      <use xlink:href="#p" fill="#fff" />
    </g>
    <g>
      <use xlink:href="#q" fill="#fff" />
    </g>
    <g>
      <use xlink:href="#r" fill="#168c96" />
    </g>
    <g>
      <use xlink:href="#s" fill="#168c96" />
    </g>
    <g>
      <use xlink:href="#t" fill="#168c96" />
    </g>
    <g>
      <use xlink:href="#u" fill="#168c96" />
    </g>
    <g>
      <use xlink:href="#v" fill="#168c96" />
    </g>
    <g>
      <use xlink:href="#w" fill="#168c96" />
    </g>
  </svg>
