  <svg
    xmlns="http://www.w3.org/2000/svg"
    xmlns:xlink="http://www.w3.org/1999/xlink"
    version="1.1"
    viewBox="0 0 192 192"
  >
    <g>
      <path
        class="outerpath"
        style="stroke: none; fill-rule: nonzero; fill-opacity: 1"
        d="M 96.160156 0.570312 C 90.65625 0.570312 85.253906 1.066406 80.003906 1.960938 L 77.445312 29.101562 C 72.015625 30.617188 66.878906 32.730469 62.074219 35.441406 L 41.097656 18.117188 C 32.234375 24.386719 24.480469 32.097656 18.210938 40.957031 L 35.582031 61.929688 C 32.871094 66.730469 30.710938 71.882812 29.195312 77.304688 L 2.097656 79.867188 C 1.203125 85.117188 0.710938 90.515625 0.710938 96.019531 C 0.710938 101.535156 1.199219 106.914062 2.097656 112.175781 L 29.195312 114.738281 C 30.710938 120.15625 32.871094 125.308594 35.582031 130.109375 L 18.253906 151.085938 C 24.511719 159.917969 32.21875 167.667969 41.050781 173.925781 L 62.070312 156.554688 C 66.878906 159.269531 72.011719 161.425781 77.441406 162.9375 L 80.003906 190.082031 C 85.253906 190.976562 90.65625 191.425781 96.160156 191.425781 C 101.664062 191.425781 107.023438 190.976562 112.269531 190.082031 L 114.832031 162.9375 C 120.265625 161.425781 125.398438 159.269531 130.207031 156.554688 L 151.222656 173.925781 C 160.058594 167.667969 167.761719 159.917969 174.023438 151.085938 L 156.695312 130.109375 C 159.402344 125.308594 161.566406 120.15625 163.078125 114.738281 L 190.175781 112.175781 C 191.074219 106.914062 191.566406 101.535156 191.566406 96.019531 C 191.566406 90.515625 191.070312 85.117188 190.175781 79.867188 L 163.078125 77.304688 C 161.566406 71.882812 159.402344 66.730469 156.695312 61.929688 L 174.066406 40.957031 C 167.792969 32.097656 160.039062 24.386719 151.179688 18.117188 L 130.203125 35.441406 C 125.398438 32.730469 120.257812 30.617188 114.832031 29.101562 L 112.265625 1.960938 C 107.015625 1.066406 101.660156 0.570312 96.15625 0.570312 Z M 96.160156 59.675781 C 116.230469 59.675781 132.464844 75.953125 132.464844 96.023438 C 132.464844 116.09375 116.230469 132.371094 96.160156 132.371094 C 76.089844 132.371094 59.8125 116.09375 59.8125 96.023438 C 59.8125 75.953125 76.089844 59.675781 96.160156 59.675781 Z M 96.160156 59.675781 "
      />
      <path
        class="innerpath"
        style="
          fill: none;
          stroke-width: 6;
          stroke-linecap: butt;
          stroke-linejoin: miter;
          stroke-opacity: 1;
          stroke-miterlimit: 4;
        "
        d="M 34.563477 23.776367 C 34.563477 17.900391 29.850586 13.137695 24.037109 13.137695 C 18.223633 13.137695 13.510742 17.900391 13.510742 23.776367 C 13.510742 29.651367 18.223633 34.414062 24.037109 34.414062 C 29.850586 34.414062 34.563477 29.651367 34.563477 23.776367 Z M 34.563477 23.776367 "
        transform="matrix(4,0,0,4,0,0)"
      />
    </g>
  </svg>
